<?xml version="1.0" standalone="no"?>
<!DOCTYPE svg PUBLIC "-//W3C//DTD SVG 1.1//EN" "http://www.w3.org/Graphics/SVG/1.1/DTD/svg11.dtd" >
<!--
2013-9-30: Created.
-->
<svg>
<metadata>
Created by iconfont
</metadata>
<defs>

<font id="iconfont" horiz-adv-x="1024" >
  <font-face
    font-family="iconfont"
    font-weight="500"
    font-stretch="normal"
    units-per-em="1024"
    ascent="896"
    descent="-128"
  />
    <missing-glyph />
    
    <glyph glyph-name="dbc_centerblngy" unicode="&#59058;" d="M462-14V782c0 27.5 22.5 50 50 50s50-22.5 50-50v-796c0-27.5-22.5-50-50-50s-50 22.5-50 50zM232 659h560c55 0 100-45 100-100s-45-100-100-100H232c-55 0-100 45-100 100s45 100 100 100zM332 309h360c55 0 100-45 100-100s-45-100-100-100H332c-55 0-100 45-100 100s45 100 100 100z"  horiz-adv-x="1024" />

    
    <glyph glyph-name="dbc_brush" unicode="&#59059;" d="M702.5 342.7H272.7c-5.5 0-10 4.5-10 10V846.8c0 5.5 4.5 10 10 10h429.8c5.5 0 10-4.5 10-10v-494.1c0-5.5-4.5-10-10-10zM708.6 293.8h-442c-11 0-20 9-20 20v56.4c0 11 9 20 20 20h442c11 0 20-9 20-20v-56.4c0-11-9-20-20-20zM463.5-26.9V181.9c0 22.1 18.1 40.2 40.2 40.2s40.2-18.1 40.2-40.2V-27c0-22.1-18.1-40.2-40.2-40.2-22.1 0.1-40.2 18.2-40.2 40.3zM756.9 323.5h-32.1c-8.8 0-16.1 7.2-16.1 16.1 0 8.8 7.2 16.1 16.1 16.1h32.1c8.8 0 16.1-7.2 16.1-16.1 0-8.9-7.2-16.1-16.1-16.1zM740.9 254.2v85.3c0 8.8 7.2 16.1 16.1 16.1 8.8 0 16.1-7.2 16.1-16.1v-85.3c0-8.8-7.2-16.1-16.1-16.1-8.9 0.1-16.1 7.3-16.1 16.1zM487.6 190v64.3c0 8.8 7.2 16.1 16.1 16.1 8.8 0 16.1-7.2 16.1-16.1V190c0-8.8-7.2-16.1-16.1-16.1-8.9 0-16.1 7.2-16.1 16.1zM503.7 270.3H757c8.8 0 16.1-7.2 16.1-16.1 0-8.8-7.2-16.1-16.1-16.1H503.7c-8.8 0-16.1 7.2-16.1 16.1 0 8.9 7.2 16.1 16.1 16.1z"  horiz-adv-x="1024" />

    
    <glyph glyph-name="dbc_chainoff" unicode="&#59060;" d="M435.6 175.9H226.2c-19.1 0-36.9 9.4-47.7 25.2L75 352.1c-13.4 19.5-13.4 45.8 0 65.4l103.5 151.1c10.8 15.8 28.6 25.2 47.7 25.2h209.4c27.6 0 50-22.4 50-50s-22.4-50-50-50H248.4l-74.6-108.9L248.4 276h187.2c27.6 0 50-22.4 50-50s-22.4-50.1-50-50.1zM798.4 175.9H589c-27.6 0-50 22.4-50 50s22.4 50 50 50h187.2l74.6 108.9-74.6 108.9H589c-27.6 0-50 22.4-50 50s22.4 50 50 50h209.4c19.1 0 36.9-9.4 47.7-25.2l103.5-151.1c13.4-19.5 13.4-45.8 0-65.3L846.1 201a57.862 57.862 0 0 0-47.7-25.1z"  horiz-adv-x="1024" />

    
    <glyph glyph-name="dbc_chartbl" unicode="&#59061;" d="M885.4-64h-756c-38.5 0-70 31.5-70 70s31.5 70 70 70h756c38.5 0 70-31.5 70-70s-31.5-70-70-70zM259.4 112h-100c-33 0-60 27-60 60V772c0 33 27 60 60 60h100c33 0 60-27 60-60v-600c0-33-27-60-60-60zM557.4 112h-100c-33 0-60 27-60 60V660.8c0 33 27 60 60 60h100c33 0 60-27 60-60V172c0-33-27-60-60-60zM855.4 112h-100c-33 0-60 27-60 60V489.2c0 33 27 60 60 60h100c33 0 60-27 60-60V172c0-33-27-60-60-60z"  horiz-adv-x="1024" />

    
    <glyph glyph-name="dbc_centergy" unicode="&#59062;" d="M562-64H462c-5.5 0-10 4.5-10 10V822c0 5.5 4.5 10 10 10h100c5.5 0 10-4.5 10-10v-876c0-5.5-4.5-10-10-10zM64 602V742c0 5.5 4.5 10 10 10h876c5.5 0 10-4.5 10-10v-140c0-5.5-4.5-10-10-10H74c-5.5 0-10 4.5-10 10zM192 274V414c0 5.5 4.5 10 10 10h620c5.5 0 10-4.5 10-10v-140c0-5.5-4.5-10-10-10H202c-5.5 0-10 4.5-10 10z"  horiz-adv-x="1024" />

    
    <glyph glyph-name="dbc_chart" unicode="&#59063;" d="M885.4-64h-756c-38.5 0-70 31.5-70 70s31.5 70 70 70h756c38.5 0 70-31.5 70-70s-31.5-70-70-70zM259.4 112h-100c-33 0-60 27-60 60V772c0 33 27 60 60 60h100c33 0 60-27 60-60v-600c0-33-27-60-60-60zM557.4 112h-100c-33 0-60 27-60 60V660.8c0 33 27 60 60 60h100c33 0 60-27 60-60V172c0-33-27-60-60-60zM855.4 112h-100c-33 0-60 27-60 60V489.2c0 33 27 60 60 60h100c33 0 60-27 60-60V172c0-33-27-60-60-60z"  horiz-adv-x="1024" />

    
    <glyph glyph-name="dbc_cnr" unicode="&#59064;" d="M254 632H74c-5.5 0-10 4.5-10 10V822c0 5.5 4.5 10 10 10h180c5.5 0 10-4.5 10-10v-180c0-5.5-4.5-10-10-10zM950-64H770c-5.5 0-10 4.5-10 10V326c0 5.5 4.5 10 10 10h180c5.5 0 10-4.5 10-10v-380c0-5.5-4.5-10-10-10zM602-64H422c-5.5 0-10 4.5-10 10V822c0 5.5 4.5 10 10 10h180c5.5 0 10-4.5 10-10v-876c0-5.5-4.5-10-10-10z"  horiz-adv-x="1024" />

    
    <glyph glyph-name="dbc_clock" unicode="&#59065;" d="M512 832C264.6 832 64 631.4 64 384s200.6-448 448-448 448 200.6 448 448S759.4 832 512 832z m239-687c-63.8-63.8-148.7-99-239-99s-175.2 35.2-239 99c-63.8 63.8-99 148.7-99 239 0 90.3 35.2 175.2 99 239 63.8 63.8 148.7 99 239 99s175.2-35.2 239-99c63.8-63.8 99-148.7 99-239 0-90.3-35.2-175.2-99-239zM510.9 312.1c-33 0-60 27-60 60V525c0 33 27 60 60 60s60-27 60-60v-152.9c0-33-27-60-60-60zM744.1 237.3c-16.5-28.6-53.4-38.5-82-22L480.8 320c-28.6 16.5-38.5 53.4-22 82s53.4 38.5 82 22l181.3-104.7c28.7-16.6 38.5-53.5 22-82z"  horiz-adv-x="1024" />

    
    <glyph glyph-name="dbc_filterbl" unicode="&#59066;" d="M139.6 832c-65.8 0-95.3-82.6-44.3-124.2l372.4-303.9c12.9-10.5 28.6-15.8 44.3-15.8V832H139.6zM928.6 707.8c51 41.6 21.6 124.2-44.3 124.2H512v-443.9c15.7 0 31.4 5.3 44.3 15.8l372.3 303.9zM509.9 501.2c-37.4 0-67.9-30.6-67.9-67.9V4c0-37.4 30.6-67.9 67.9-67.9h2.1V501.2h-2.1zM582 3.9V433.2c0 37.4-30.6 67.9-67.9 67.9H512V-64h2.1c37.3 0 67.9 30.5 67.9 67.9z"  horiz-adv-x="1024" />

    
    <glyph glyph-name="dbc_color" unicode="&#59067;" d="M382 254m-318 0a318 318 0 1 1 636 0 318 318 0 1 1-636 0ZM642 514m-318 0a318 318 0 1 1 636 0 318 318 0 1 1-636 0Z"  horiz-adv-x="1024" />

    
    <glyph glyph-name="dbc_exchange" unicode="&#59068;" d="M314 245.7c-34.2 0.5-66.5 14.3-91.1 38.9-25.1 25.1-38.9 58.1-38.9 93.1 0 35 13.8 68.1 38.9 93.1 25.1 25.1 58.1 38.9 93.1 38.9h236.5v120H316c-138.6 0-252-113.4-252-252 0-137.9 112.3-250.9 250-252v120zM710 629.6v-120c34.2-0.5 66.5-14.3 91.1-38.9 25.1-25.1 38.9-58.1 38.9-93.1s-13.8-68.1-38.9-93.1C776 259.4 743 245.6 708 245.6H473v-120h235c138.6 0 252 113.4 252 252 0 138-112.3 251-250 252zM595.7 527.8l-0.8-0.8c-23.1-23.1-60.9-23.1-84 0l-114 113.9c-23.1 23.1-23.1 60.9 0 84l0.8 0.8c23.1 23.1 60.9 23.1 84 0l113.9-113.9c23.2-23.1 23.2-60.9 0.1-84zM629.1 30.3l-0.8-0.8c-23.1-23.1-60.9-23.1-84 0l-114 114c-23.1 23.1-23.1 60.9 0 84l0.8 0.8c23.1 23.1 60.9 23.1 84 0L629 114.4c23.2-23.2 23.2-61 0.1-84.1zM313 185.7m-60 0a60 60 0 1 1 120 0 60 60 0 1 1-120 0ZM713 569.6m-60 0a60 60 0 1 1 120 0 60 60 0 1 1-120 0Z"  horiz-adv-x="1024" />

    
    <glyph glyph-name="dbc_filter" unicode="&#59069;" d="M139.6 832c-65.8 0-95.3-82.6-44.3-124.2l372.4-303.9c12.9-10.5 28.6-15.8 44.3-15.8V832H139.6zM928.6 707.8c51 41.6 21.6 124.2-44.3 124.2H512v-443.9c15.7 0 31.4 5.3 44.3 15.8l372.3 303.9zM509.9 501.2c-37.4 0-67.9-30.6-67.9-67.9V4c0-37.4 30.6-67.9 67.9-67.9h2.1V501.2h-2.1zM582 3.9V433.2c0 37.4-30.6 67.9-67.9 67.9H512V-64h2.1c37.3 0 67.9 30.5 67.9 67.9z"  horiz-adv-x="1024" />

    
    <glyph glyph-name="dbc_leftblngy" unicode="&#59070;" d="M64-14V782c0 27.5 22.5 50 50 50s50-22.5 50-50v-796c0-27.5-22.5-50-50-50s-50 22.5-50 50zM300 659h560c55 0 100-45 100-100s-45-100-100-100H300c-55 0-100 45-100 100s45 100 100 100zM300 309h360c55 0 100-45 100-100s-45-100-100-100H300c-55 0-100 45-100 100s45 100 100 100z"  horiz-adv-x="1024" />

    
    <glyph glyph-name="dbc_logcolor" unicode="&#59071;" d="M802 782.1H222c-33 0-60-27-60-60v-723.9c0-33 27-60 60-60h580c33 0 60 27 60 60V722.1c0 33-27 60-60 60zM242 702.1h540v-683.9H242zM672 662H352c-27.5 0-50 22.5-50 50v70c0 27.5 22.5 50 50 50h320c27.5 0 50-22.5 50-50v-70c0-27.5-22.5-50-50-50zM662 464.5H362c-22 0-40 18-40 40s18 40 40 40h300c22 0 40-18 40-40s-18-40-40-40zM632 298.6H392c-22 0-40 18-40 40s18 40 40 40h240c22 0 40-18 40-40s-18-40-40-40zM662 132.7H362c-22 0-40 18-40 40s18 40 40 40h300c22 0 40-18 40-40s-18-40-40-40z"  horiz-adv-x="1024" />

    
    <glyph glyph-name="dbc_leftgy" unicode="&#59072;" d="M174-64H74c-5.5 0-10 4.5-10 10V822c0 5.5 4.5 10 10 10h100c5.5 0 10-4.5 10-10v-876c0-5.5-4.5-10-10-10zM240 602V742c0 5.5 4.5 10 10 10h700c5.5 0 10-4.5 10-10v-140c0-5.5-4.5-10-10-10H250c-5.5 0-10 4.5-10 10zM240 274V414c0 5.5 4.5 10 10 10h500c5.5 0 10-4.5 10-10v-140c0-5.5-4.5-10-10-10H250c-5.5 0-10 4.5-10 10z"  horiz-adv-x="1024" />

    
    <glyph glyph-name="dbc_printer" unicode="&#59073;" d="M733 832H293c-27.5 0-50-22.5-50-50v-440c0-27.5 22.5-50 50-50h440c27.5 0 50 22.5 50 50V782c0 27.5-22.5 50-50 50z m-30-460H323V752h380v-380zM323 752h380v-380H323zM911 463H115c-27.5 0-50-22.5-50-50v-337c0-27.5 22.5-50 50-50h796c27.5 0 50 22.5 50 50V413c0 27.5-22.5 50-50 50zM813 190H213c-27.5 0-50-22.5-50-50v-154c0-27.5 22.5-50 50-50h600c27.5 0 50 22.5 50 50V140c0 27.5-22.5 50-50 50zM703 16H323v94h380v-94zM243 110h540v-94H243zM602 631.5H422c-22 0-40 18-40 40s18 40 40 40h180c22 0 40-18 40-40s-18-40-40-40zM602 507.2H422c-22 0-40 18-40 40s18 40 40 40h180c22 0 40-18 40-40s-18-40-40-40z"  horiz-adv-x="1024" />

    
    <glyph glyph-name="dbc_project" unicode="&#59074;" d="M406.1 634.7v-139.5h-260V634.7h260m20 80h-300c-33 0-60-27-60-60v-179.5c0-33 27-60 60-60h300c33 0 60 27 60 60V654.7c0 33-27 60-60 60zM602.1 454.8c-10.8 0-20 9.2-20 20V654.2c0 10.8 9.2 20 20 20h300c10.8 0 20-9.2 20-20v-179.5c0-10.8-9.2-20-20-20h-300zM882.1 634.2v-139.5h-260V634.2h260m20 80h-300c-33 0-60-27-60-60v-179.5c0-33 27-60 60-60h300c33 0 60 27 60 60V654.2c0 33-27 60-60 60zM126.1 105.3c-10.8 0-20 9.2-20 20V304.8c0 10.8 9.2 20 20 20h300c10.8 0 20-9.2 20-20v-179.5c0-10.8-9.2-20-20-20h-300zM406.1 284.7v-139.5h-260V284.7h260m20 80h-300c-33 0-60-27-60-60v-179.5c0-33 27-60 60-60h300c33 0 60 27 60 60V304.7c0 33-27 60-60 60zM602.1 104.8c-10.8 0-20 9.2-20 20V304.2c0 10.8 9.2 20 20 20h300c10.8 0 20-9.2 20-20v-179.5c0-10.8-9.2-20-20-20h-300zM882.1 284.2v-139.5h-260V284.2h260m20 80h-300c-33 0-60-27-60-60v-179.5c0-33 27-60 60-60h300c33 0 60 27 60 60V304.2c0 33-27 60-60 60z"  horiz-adv-x="1024" />

    
    <glyph glyph-name="dbc_rightblngy" unicode="&#59075;" d="M860-14V782c0 27.5 22.5 50 50 50s50-22.5 50-50v-796c0-27.5-22.5-50-50-50s-50 22.5-50 50zM164 659h560c55 0 100-45 100-100s-45-100-100-100H164c-55 0-100 45-100 100s45 100 100 100zM364 309h360c55 0 100-45 100-100s-45-100-100-100H364c-55 0-100 45-100 100s45 100 100 100z"  horiz-adv-x="1024" />

    
    <glyph glyph-name="dbc_rightgy" unicode="&#59076;" d="M950-64H850c-5.5 0-10 4.5-10 10V822c0 5.5 4.5 10 10 10h100c5.5 0 10-4.5 10-10v-876c0-5.5-4.5-10-10-10zM64 602V742c0 5.5 4.5 10 10 10h700c5.5 0 10-4.5 10-10v-140c0-5.5-4.5-10-10-10H74c-5.5 0-10 4.5-10 10zM264 274V414c0 5.5 4.5 10 10 10h500c5.5 0 10-4.5 10-10v-140c0-5.5-4.5-10-10-10H274c-5.5 0-10 4.5-10 10z"  horiz-adv-x="1024" />

    
    <glyph glyph-name="dbc_queue" unicode="&#59077;" d="M735.2-64c-33 0-60 27-60 60V476c0 33 27 60 60 60s60-27 60-60v-480c0-33-27-60-60-60zM709.2 817L546 534.2c-11.5-20 2.9-45 26-45h326.5c23.1 0 37.5 25 26 45L761.2 817c-11.5 20-40.4 20-52 0zM295.2 832c33 0 60-27 60-60v-480c0-33-27-60-60-60s-60 27-60 60V772c0 33 27 60 60 60zM321.2-49l163.3 282.8c11.5 20-2.9 45-26 45H132c-23.1 0-37.5-25-26-45L269.2-49c11.6-20 40.5-20 52 0z"  horiz-adv-x="1024" />

    
    <glyph glyph-name="dbc_pic" unicode="&#59078;" d="M910 24H114c-27.5 0-50 22.5-50 50V694c0 27.5 22.5 50 50 50h796c27.5 0 50-22.5 50-50v-620c0-27.5-22.5-50-50-50zM618.4 417.8L427.2 127.9c-9.6-12-1-29.8 14.3-29.8h467.4c15.4 0 23.9 17.8 14.3 29.8L647.1 417.8c-7.4 9.2-21.4 9.2-28.7 0zM305.9 530.8L78 127.9c-9.6-12-1-29.8 14.3-29.8h598c15.4 0 23.9 17.8 14.3 29.8l-370 402.9c-7.3 9.2-21.4 9.2-28.7 0zM860 644v-520H164V644h696m50 100H114c-27.5 0-50-22.5-50-50v-620c0-27.5 22.5-50 50-50h796c27.5 0 50 22.5 50 50V694c0 27.5-22.5 50-50 50z"  horiz-adv-x="1024" />

    
    <glyph glyph-name="dbc_save" unicode="&#59079;" d="M670.9 832H114c-27.5 0-50-22.5-50-50v-796c0-27.5 22.5-50 50-50h796c27.5 0 50 22.5 50 50V542.9c0 13.3-5.3 26-14.6 35.4L706.3 817.4c-9.4 9.3-22.1 14.6-35.4 14.6zM822 26H202c-5.5 0-10 4.5-10 10V416c0 5.5 4.5 10 10 10h620c5.5 0 10-4.5 10-10v-380c0-5.5-4.5-10-10-10zM602 592H202c-5.5 0-10 4.5-10 10V832h420v-230c0-5.5-4.5-10-10-10zM408.4 831.7h120v-200h-120zM762 366v-100H262V366zM761.985 185.115v-100h-500v100z"  horiz-adv-x="1024" />

    
    <glyph glyph-name="dbc_section" unicode="&#59080;" d="M915.5 704h-127v-120H840v-400h-51.5v-120h127c24.5 0 44.5 20 44.5 44.5v551c0 24.5-20 44.5-44.5 44.5zM238.5 184H184V584h54.5V704h-130C84 704 64 684 64 659.5v-551C64 84 84 64 108.5 64h130V184zM238.5 644m-60 0a60 60 0 1 1 120 0 60 60 0 1 1-120 0ZM238.5 124.3m-60 0a60 60 0 1 1 120 0 60 60 0 1 1-120 0ZM788.5 124.3m-60 0a60 60 0 1 1 120 0 60 60 0 1 1-120 0ZM788.5 644m-60 0a60 60 0 1 1 120 0 60 60 0 1 1-120 0ZM332 384m-60 0a60 60 0 1 1 120 0 60 60 0 1 1-120 0ZM512 384m-60 0a60 60 0 1 1 120 0 60 60 0 1 1-120 0ZM692 384m-60 0a60 60 0 1 1 120 0 60 60 0 1 1-120 0Z"  horiz-adv-x="1024" />

    
    <glyph glyph-name="dbc_size" unicode="&#59081;" d="M644 712v-460H184V712h460m70 120H114c-27.5 0-50-22.5-50-50v-600c0-27.5 22.5-50 50-50h600c27.5 0 50 22.5 50 50V782c0 27.5-22.5 50-50 50zM840 299v-243H597V299h243m70 120H527c-27.5 0-50-22.5-50-50v-383c0-27.5 22.5-50 50-50h383c27.5 0 50 22.5 50 50V369c0 27.5-22.5 50-50 50z"  horiz-adv-x="1024" />

    
    <glyph glyph-name="dbc_settingbl" unicode="&#59082;" d="M306.2 736.3C160.9 672.5 94.7 502.9 158.6 357.5S392 146 537.3 209.8 748.9 443.2 685 588.6 451.6 800.1 306.2 736.3z m184.3-419.7c-86.2-37.9-187.2 1.5-225.1 87.8s1.5 187.2 87.8 225.1 187.2-1.5 225.1-87.8-1.6-187.2-87.8-225.1zM434.5 279.1l52.3-119.2c14.7-33.4 54-48.8 87.4-34.1 33.4 14.7 48.8 54 34.1 87.4L556 332.4c-15.9-15.2-34.7-28-56.1-37.4s-43.4-14.5-65.4-15.9zM409.1 667l-52.3 119.2c-14.7 33.4-54 48.8-87.4 34.1-33.4-14.7-48.8-54-34.1-87.4l52.3-119.2c15.9 15.2 34.7 28 56.1 37.4 21.3 9.2 43.4 14.4 65.4 15.9zM567.9 344.8l121.3-47.3c34-13.3 72.7 3.7 85.9 37.7 13.3 34-3.7 72.7-37.7 85.9l-121.3 47.3c-0.5-22-4.8-44.4-13.2-66.1-8.5-21.6-20.5-40.9-35-57.5zM275.7 601.2l-121.3 47.3c-34 13.3-72.7-3.7-85.9-37.7-13.3-34 3.7-72.7 37.7-85.9l121.3-47.3c0.5 22 4.8 44.4 13.2 66.1s20.5 41 35 57.5zM615.7 485.7L734.9 538c33.4 14.7 48.8 54 34.1 87.4-14.7 33.4-54 48.8-87.4 34.1l-119.2-52.3c15.2-15.9 28-34.7 37.4-56.1 9.3-21.3 14.5-43.4 15.9-65.4zM227.9 460.4l-119.2-52.3c-33.4-14.7-48.8-54-34.1-87.4 14.7-33.4 54-48.8 87.4-34.1l119.2 52.3c-15.2 15.9-28 34.7-37.4 56.1-9.3 21.2-14.5 43.4-15.9 65.4zM550 619.1l47.3 121.3c13.3 34-3.7 72.7-37.7 85.9-34 13.3-72.7-3.7-85.9-37.7l-47.3-121.3c22-0.5 44.4-4.8 66.1-13.2s40.9-20.4 57.5-35zM293.6 326.9l-47.3-121.3c-13.3-34 3.7-72.7 37.7-85.9 34-13.3 72.7 3.7 85.9 37.7l47.3 121.3c-22 0.5-44.4 4.8-66.1 13.2-21.6 8.5-40.9 20.5-57.5 35zM767 430.5c-115.7 50.1-250.2-3.1-300.3-118.8s3.1-250.2 118.8-300.3 250.2 3.1 300.3 118.8-3.1 250.2-118.8 300.3zM622.3 96.4c-68.7 29.7-100.3 109.8-70.6 178.5s109.8 100.3 178.5 70.6S830.5 235.7 800.7 167s-109.8-100.3-178.4-70.6zM570.2 108.8l-41.1-94.9c-11.5-26.6 0.8-57.8 27.4-69.3 26.6-11.5 57.8 0.8 69.3 27.4l41.1 94.9c-17.5 1-35.1 5.1-52.1 12.4-16.9 7.4-31.9 17.4-44.6 29.5zM782.2 333.2l41.1 94.9c11.5 26.6-0.8 57.8-27.4 69.3-26.6 11.5-57.8-0.8-69.3-27.4l-41.1-94.9c17.5-1 35.1-5.1 52.1-12.4 16.9-7.4 31.9-17.5 44.6-29.5zM680.6 66.6l38-96.2c10.7-27 41.5-40.3 68.4-29.6 27 10.7 40.3 41.5 29.6 68.4l-38 96.2a154.2 154.2 0 0 0-45.6-28c-17.2-6.8-34.9-10.3-52.4-10.8zM671.8 375.3l-38 96.2c-10.7 27-41.5 40.3-68.4 29.6-27-10.7-40.3-41.5-29.6-68.4l38-96.2a154.2 154.2 0 0 0 45.6 28c17.2 6.8 34.9 10.3 52.4 10.8zM788.4 114.9l94.9-41.1c26.6-11.5 57.8 0.8 69.3 27.4 11.5 26.6-0.8 57.8-27.4 69.3l-94.9 41.1c-1-17.5-5.1-35.1-12.4-52.1-7.4-16.9-17.4-31.9-29.5-44.6zM564 327l-94.9 41.1c-26.6 11.5-57.8-0.8-69.3-27.4-11.5-26.6 0.8-57.8 27.4-69.3l94.9-41.1c1 17.5 5.1 35.1 12.4 52.1 7.4 16.9 17.4 31.9 29.5 44.6zM830.5 225.3l96.2 38c27 10.7 40.3 41.5 29.6 68.4-10.7 27-41.5 40.3-68.4 29.6l-96.2-38a154.2 154.2 0 0 0 28-45.6c6.9-17.1 10.4-34.9 10.8-52.4zM521.9 216.6l-96.2-38c-27-10.7-40.3-41.5-29.6-68.4 10.7-27 41.5-40.3 68.4-29.6l96.2 38a154.2 154.2 0 0 0-28 45.6c-6.9 17.2-10.3 34.9-10.8 52.4z"  horiz-adv-x="1024" />

    
    <glyph glyph-name="dbc_setting" unicode="&#59083;" d="M306.2 736.3C160.9 672.5 94.7 502.9 158.6 357.5S392 146 537.3 209.8 748.9 443.2 685 588.6 451.6 800.1 306.2 736.3z m184.3-419.7c-86.2-37.9-187.2 1.5-225.1 87.8s1.5 187.2 87.8 225.1 187.2-1.5 225.1-87.8-1.6-187.2-87.8-225.1zM434.5 279.1l52.3-119.2c14.7-33.4 54-48.8 87.4-34.1 33.4 14.7 48.8 54 34.1 87.4L556 332.4c-15.9-15.2-34.7-28-56.1-37.4s-43.4-14.5-65.4-15.9zM409.1 667l-52.3 119.2c-14.7 33.4-54 48.8-87.4 34.1-33.4-14.7-48.8-54-34.1-87.4l52.3-119.2c15.9 15.2 34.7 28 56.1 37.4 21.3 9.2 43.4 14.4 65.4 15.9zM567.9 344.8l121.3-47.3c34-13.3 72.7 3.7 85.9 37.7 13.3 34-3.7 72.7-37.7 85.9l-121.3 47.3c-0.5-22-4.8-44.4-13.2-66.1-8.5-21.6-20.5-40.9-35-57.5zM275.7 601.2l-121.3 47.3c-34 13.3-72.7-3.7-85.9-37.7-13.3-34 3.7-72.7 37.7-85.9l121.3-47.3c0.5 22 4.8 44.4 13.2 66.1s20.5 41 35 57.5zM615.7 485.7L734.9 538c33.4 14.7 48.8 54 34.1 87.4-14.7 33.4-54 48.8-87.4 34.1l-119.2-52.3c15.2-15.9 28-34.7 37.4-56.1 9.3-21.3 14.5-43.4 15.9-65.4zM227.9 460.4l-119.2-52.3c-33.4-14.7-48.8-54-34.1-87.4 14.7-33.4 54-48.8 87.4-34.1l119.2 52.3c-15.2 15.9-28 34.7-37.4 56.1-9.3 21.2-14.5 43.4-15.9 65.4zM550 619.1l47.3 121.3c13.3 34-3.7 72.7-37.7 85.9-34 13.3-72.7-3.7-85.9-37.7l-47.3-121.3c22-0.5 44.4-4.8 66.1-13.2s40.9-20.4 57.5-35zM293.6 326.9l-47.3-121.3c-13.3-34 3.7-72.7 37.7-85.9 34-13.3 72.7 3.7 85.9 37.7l47.3 121.3c-22 0.5-44.4 4.8-66.1 13.2-21.6 8.5-40.9 20.5-57.5 35zM767 430.5c-115.7 50.1-250.2-3.1-300.3-118.8s3.1-250.2 118.8-300.3 250.2 3.1 300.3 118.8-3.1 250.2-118.8 300.3zM622.3 96.4c-68.7 29.7-100.3 109.8-70.6 178.5s109.8 100.3 178.5 70.6S830.5 235.7 800.7 167s-109.8-100.3-178.4-70.6zM570.2 108.8l-41.1-94.9c-11.5-26.6 0.8-57.8 27.4-69.3 26.6-11.5 57.8 0.8 69.3 27.4l41.1 94.9c-17.5 1-35.1 5.1-52.1 12.4-16.9 7.4-31.9 17.4-44.6 29.5zM782.2 333.2l41.1 94.9c11.5 26.6-0.8 57.8-27.4 69.3-26.6 11.5-57.8-0.8-69.3-27.4l-41.1-94.9c17.5-1 35.1-5.1 52.1-12.4 16.9-7.4 31.9-17.5 44.6-29.5zM680.6 66.6l38-96.2c10.7-27 41.5-40.3 68.4-29.6 27 10.7 40.3 41.5 29.6 68.4l-38 96.2a154.2 154.2 0 0 0-45.6-28c-17.2-6.8-34.9-10.3-52.4-10.8zM671.8 375.3l-38 96.2c-10.7 27-41.5 40.3-68.4 29.6-27-10.7-40.3-41.5-29.6-68.4l38-96.2a154.2 154.2 0 0 0 45.6 28c17.2 6.8 34.9 10.3 52.4 10.8zM788.4 114.9l94.9-41.1c26.6-11.5 57.8 0.8 69.3 27.4 11.5 26.6-0.8 57.8-27.4 69.3l-94.9 41.1c-1-17.5-5.1-35.1-12.4-52.1-7.4-16.9-17.4-31.9-29.5-44.6zM564 327l-94.9 41.1c-26.6 11.5-57.8-0.8-69.3-27.4-11.5-26.6 0.8-57.8 27.4-69.3l94.9-41.1c1 17.5 5.1 35.1 12.4 52.1 7.4 16.9 17.4 31.9 29.5 44.6zM830.5 225.3l96.2 38c27 10.7 40.3 41.5 29.6 68.4-10.7 27-41.5 40.3-68.4 29.6l-96.2-38a154.2 154.2 0 0 0 28-45.6c6.9-17.1 10.4-34.9 10.8-52.4zM521.9 216.6l-96.2-38c-27-10.7-40.3-41.5-29.6-68.4 10.7-27 41.5-40.3 68.4-29.6l96.2 38a154.2 154.2 0 0 0-28 45.6c-6.9 17.2-10.3 34.9-10.8 52.4z"  horiz-adv-x="1024" />

    
    <glyph glyph-name="dbc_string" unicode="&#59084;" d="M722 720c33.4 0 65-13.2 88.9-37.1C834.8 659 848 627.4 848 594v-420c0-33.4-13.2-65-37.1-88.9C787 61.2 755.4 48 722 48H302c-33.4 0-65 13.2-88.9 37.1C189.2 109 176 140.6 176 174V594c0 33.4 13.2 65 37.1 88.9C237 706.8 268.6 720 302 720h420m0 94H302C181 814 82 715 82 594v-420c0-121 99-220 220-220h420c121 0 220 99 220 220V594c0 121-99 220-220 220zM701.3 163.7c-22-10-48.3-0.2-58.3 21.8L478.9 546c-10 22-0.2 48.3 21.8 58.3s48.3 0.2 58.3-21.8L723.1 222c10-22.1 0.2-48.3-21.8-58.3zM321.8 164.1c-21.8 10.5-31 37-20.5 58.8l172 356.8c10.5 21.8 37 31 58.8 20.5 21.8-10.5 31-37 20.5-58.8l-172-356.8c-10.5-21.8-37-31-58.8-20.5zM614.7 281.8H422.2c-6.6 0-12 5.4-12 12v46.4c0 6.6 5.4 12 12 12h192.5c6.6 0 12-5.4 12-12v-46.4c0-6.6-5.4-12-12-12z"  horiz-adv-x="1024" />

    
    <glyph glyph-name="dbc_textcolor" unicode="&#59085;" d="M890 692H134c-38.5 0-70 31.5-70 70s31.5 70 70 70h756c38.5 0 70-31.5 70-70s-31.5-70-70-70zM900-64H124c-33 0-60 27-60 60s27 60 60 60h776c33 0 60-27 60-60s-27-60-60-60zM442 182V762c0 38.5 31.5 70 70 70s70-31.5 70-70v-580c0-38.5-31.5-70-70-70s-70 31.5-70 70z"  horiz-adv-x="1024" />

    
    <glyph glyph-name="dbc_textEditor" unicode="&#59086;" d="M692 668.8H332c-33 0-60 27-60 60s27 60 60 60h360c33 0 60-27 60-60s-27-60-60-60zM692-27.2H332c-33 0-60 27-60 60s27 60 60 60h360c33 0 60-27 60-60s-27-60-60-60zM800 200.8v360c0 33 27 60 60 60s60-27 60-60v-360c0-33-27-60-60-60s-60 27-60 60zM104 200.8v360c0 33 27 60 60 60s60-27 60-60v-360c0-33-27-60-60-60s-60 27-60 60zM164 728.8m-100 0a100 100 0 1 1 200 0 100 100 0 1 1-200 0ZM860 728.8m-100 0a100 100 0 1 1 200 0 100 100 0 1 1-200 0ZM860 32.8m-100 0a100 100 0 1 1 200 0 100 100 0 1 1-200 0ZM164 32.8m-100 0a100 100 0 1 1 200 0 100 100 0 1 1-200 0ZM628.6 217.7l-21.5 56.5H424l-21.5-57.7c-8.4-22.5-15.6-37.7-21.5-45.6-5.9-7.9-15.7-11.8-29.2-11.8-11.5 0-21.6 4.2-30.4 12.6-8.8 8.4-13.2 17.9-13.2 28.6 0 6.1 1 12.5 3.1 19 2 6.6 5.4 15.7 10.1 27.3L436.6 539c3.3 8.4 7.2 18.5 11.8 30.3 4.6 11.8 9.5 21.5 14.7 29.3 5.2 7.8 12.1 14.1 20.6 18.9 8.5 4.8 19 7.2 31.5 7.2 12.7 0 23.3-2.4 31.8-7.2 8.5-4.8 15.4-11 20.6-18.6 5.2-7.6 9.6-15.7 13.2-24.4 3.6-8.7 8.1-20.3 13.7-34.9L712.1 249c9.2-22.1 13.8-38.2 13.8-48.2 0-10.4-4.4-20-13.1-28.7S693.6 159 681.3 159c-7.2 0-13.3 1.3-18.4 3.8-5.1 2.6-9.4 6-12.9 10.4s-7.2 11.2-11.2 20.3c-3.9 9.2-7.4 17.3-10.2 24.2zM448 342.7h134.5l-67.9 185.8L448 342.7z"  horiz-adv-x="1024" />

    
    <glyph glyph-name="dbc_textEditorb" unicode="&#59087;" d="M692 668.8H332c-33 0-60 27-60 60s27 60 60 60h360c33 0 60-27 60-60s-27-60-60-60zM692-27.2H332c-33 0-60 27-60 60s27 60 60 60h360c33 0 60-27 60-60s-27-60-60-60zM800 200.8v360c0 33 27 60 60 60s60-27 60-60v-360c0-33-27-60-60-60s-60 27-60 60zM104 200.8v360c0 33 27 60 60 60s60-27 60-60v-360c0-33-27-60-60-60s-60 27-60 60zM164 728.8m-100 0a100 100 0 1 1 200 0 100 100 0 1 1-200 0ZM860 728.8m-100 0a100 100 0 1 1 200 0 100 100 0 1 1-200 0ZM860 32.8m-100 0a100 100 0 1 1 200 0 100 100 0 1 1-200 0ZM164 32.8m-100 0a100 100 0 1 1 200 0 100 100 0 1 1-200 0ZM628.6 217.7l-21.5 56.5H424l-21.5-57.7c-8.4-22.5-15.6-37.7-21.5-45.6-5.9-7.9-15.7-11.8-29.2-11.8-11.5 0-21.6 4.2-30.4 12.6-8.8 8.4-13.2 17.9-13.2 28.6 0 6.1 1 12.5 3.1 19 2 6.6 5.4 15.7 10.1 27.3L436.6 539c3.3 8.4 7.2 18.5 11.8 30.3 4.6 11.8 9.5 21.5 14.7 29.3 5.2 7.8 12.1 14.1 20.6 18.9 8.5 4.8 19 7.2 31.5 7.2 12.7 0 23.3-2.4 31.8-7.2 8.5-4.8 15.4-11 20.6-18.6 5.2-7.6 9.6-15.7 13.2-24.4 3.6-8.7 8.1-20.3 13.7-34.9L712.1 249c9.2-22.1 13.8-38.2 13.8-48.2 0-10.4-4.4-20-13.1-28.7S693.6 159 681.3 159c-7.2 0-13.3 1.3-18.4 3.8-5.1 2.6-9.4 6-12.9 10.4s-7.2 11.2-11.2 20.3c-3.9 9.2-7.4 17.3-10.2 24.2zM448 342.7h134.5l-67.9 185.8L448 342.7z"  horiz-adv-x="1024" />

    
    <glyph glyph-name="db_arrow" unicode="&#59093;" d="M778.4 433.5L417.7 794.1c-27.2 27.2-71.8 27.2-99 0-27.2-27.2-27.2-71.8 0-99L629.9 384 318.7 72.9c-27.2-27.2-27.2-71.8 0-99 27.2-27.2 71.8-27.2 99 0l360.6 360.6c27.3 27.2 27.3 71.8 0.1 99z"  horiz-adv-x="1024" />

    
    <glyph glyph-name="db_arrowTo" unicode="&#59094;" d="M959.9 387.5c0 0.3 0 0.6-0.1 0.9-0.1 0.9-0.1 1.8-0.2 2.6 0 0.2-0.1 0.4-0.1 0.7-0.1 1-0.2 1.9-0.4 2.9v0.1c-2.2 14.2-8.7 27.9-19.6 38.8L579 794.1c-27.2 27.2-71.8 27.2-99 0-27.2-27.2-27.2-71.8 0-99L721.1 454H134c-38.5 0-70-31.5-70-70s31.5-70 70-70h587.1L480 72.9c-27.2-27.2-27.2-71.8 0-99s71.8-27.2 99 0l360.6 360.6c10.9 10.9 17.4 24.5 19.6 38.8v0.1c0.1 1 0.3 1.9 0.4 2.9 0 0.2 0.1 0.4 0.1 0.7 0.1 0.9 0.1 1.8 0.2 2.6 0 0.3 0 0.6 0.1 0.9 0.1 1.2 0.1 2.3 0.1 3.5-0.1 1.2-0.1 2.3-0.2 3.5z"  horiz-adv-x="1024" />

    
    <glyph glyph-name="db_arrow1" unicode="&#59095;" d="M910.7 433.5L550 794.1c-27.2 27.2-71.8 27.2-99 0-27.2-27.2-27.2-71.8 0-99L762.2 384 451 72.9c-27.2-27.2-27.2-71.8 0-99 27.2-27.2 71.8-27.2 99 0l360.6 360.6c27.3 27.2 27.3 71.8 0.1 99zM573.2 433.5L212.5 794.1c-27.2 27.2-71.8 27.2-99 0-27.2-27.2-27.2-71.8 0-99L424.7 384 113.5 72.9c-27.2-27.2-27.2-71.8 0-99 27.2-27.2 71.8-27.2 99 0l360.6 360.6c27.3 27.2 27.3 71.8 0.1 99z"  horiz-adv-x="1024" />

    
    <glyph glyph-name="db_bold" unicode="&#59096;" d="M167.6 802c0 16.6 13.4 30 30 30h283.1c185.5 0 333.6-49.4 333.6-221.6 0-79.5-44.6-166.2-116.8-193.9v-4.8c90.3-24.1 159-91.5 159-210.8C856.4 17.899999999999977 701.1-64 506-64H197.6c-16.6 0-30 13.4-30 30V802z m304.7-325.3c91.5 0 132.5 39.7 132.5 101.2 0 63.8-42.2 90.3-132.5 90.3h-89.1v-191.5h89.1z m18-375.7c103.6 0 156.6 37.3 156.6 114.4 0 73.5-51.8 102.4-156.6 102.4H383.1V101h107.2z"  horiz-adv-x="1024" />

    
    <glyph glyph-name="db_calendar" unicode="&#59097;" d="M292.1 840.5c-27.5 0-50-22.5-50-50v-80.4c0-27.5 22.5-50 50-50s50 22.5 50 50v80.4c0 27.5-22.5 50-50 50zM728.1 840.5c-27.5 0-50-22.5-50-50v-80.4c0-27.5 22.5-50 50-50s50 22.5 50 50v80.4c0 27.5-22.5 50-50 50zM566.6 622.5c7.7-12.4 16.8-23.9 27.2-34.3 17.4-17.4 37.7-31.1 60.3-40.6 23.5-9.9 48.4-15 74-15s50.5 5 74 15c21.1 8.9 40.2 21.4 56.8 37.2v-522l-0.2-0.2H163.1l-0.2 0.2V583.4c16.3-15.1 34.8-27.1 55.3-35.8 23.5-9.9 48.4-15 74-15s50.5 5 74 15c22.6 9.6 42.9 23.2 60.3 40.6 10.4 10.4 19.6 21.9 27.2 34.3h112.9m292.3 100h-40.8c0-49.7-40.3-89.9-90-89.9s-90 40.3-90 89.9h-256c0-49.7-40.3-89.9-90-89.9s-90 40.3-90 89.9h-39.3c-55 0-100-45-100-100v-560c0-55 45-100 100-100h696c55 0 100 45 100 100v560c0.1 55-44.9 100-99.9 100zM592 439.8c4.4 25.9 4.1 39.2-4.9 49.8-8.1 9.5-23.3 21.5-51.8 15-27.5-6.3-77.1-41.3-88.6-56.3s-5.6-36.6 0-42c15.5-15 52.3-5.8 59.5-1.5l-52.5-223.2c-4.4-25.9-2.4-41.5 6.6-52.1 8.1-9.5 21-14 40.9-14 24 0 34 31.1 39.1 60.4L592 439.8z"  horiz-adv-x="1024" />

    
    <glyph glyph-name="db_center" unicode="&#59098;" d="M562-64H462c-5.5 0-10 4.5-10 10V822c0 5.5 4.5 10 10 10h100c5.5 0 10-4.5 10-10v-876c0-5.5-4.5-10-10-10zM64 602V742c0 5.5 4.5 10 10 10h876c5.5 0 10-4.5 10-10v-140c0-5.5-4.5-10-10-10H74c-5.5 0-10 4.5-10 10zM192 274V414c0 5.5 4.5 10 10 10h620c5.5 0 10-4.5 10-10v-140c0-5.5-4.5-10-10-10H202c-5.5 0-10 4.5-10 10z"  horiz-adv-x="1024" />

    
    <glyph glyph-name="db_chain" unicode="&#59099;" d="M435.6 175.9H226.2c-19.1 0-36.9 9.4-47.7 25.2L75 352.1c-13.4 19.5-13.4 45.8 0 65.3l103.5 151.1c10.8 15.7 28.6 25.2 47.7 25.2h209.4c27.6 0 50-22.4 50-50s-22.4-50-50-50H248.4l-74.6-108.9 74.6-108.9h169l93.9 98.1c19.1 19.9 50.7 20.6 70.7 1.5 19.9-19.1 20.6-50.7 1.5-70.7L479.7 196.3c-10.9-12.9-27-20.4-44.1-20.4z m-34.8 81.7zM798.4 175.9H589c-27.6 0-50 22.4-50 50s22.4 50 50 50h187.2l74.6 108.9-74.6 108.9h-169l-93.9-98.1c-19.1-19.9-50.7-20.6-70.7-1.5-19.9 19.1-20.6 50.7-1.5 70.7L545 573.3c10.9 12.9 27 20.4 44.1 20.4h209.4c19.1 0 36.9-9.4 47.7-25.2l103.5-151.1c13.4-19.5 13.4-45.8 0-65.3L846.1 201a57.862 57.862 0 0 0-47.7-25.1zM623.8 512.1c0-0.1 0-0.1 0 0 0-0.1 0-0.1 0 0z"  horiz-adv-x="1024" />

    
    <glyph glyph-name="db_check" unicode="&#59100;" d="M936.3 644.4c-23.3 23.3-61.5 23.3-84.9 0L398.9 191.9 172.6 418.1c-23.3 23.3-61.5 23.3-84.9 0-23.3-23.3-23.3-61.5 0-84.9l268.7-268.7c23.3-23.3 61.5-23.3 84.9 0l495 495c23.3 23.4 23.3 61.6 0 84.9z"  horiz-adv-x="1024" />

    
    <glyph glyph-name="db_drag" unicode="&#59101;" d="M939.6 433.6l-84.9 84.9c-27.2 27.2-71.8 27.2-99 0-17.4-17.4-23.7-42-18.8-64.6H582v155c22.5-4.9 47.1 1.4 64.5 18.8 27.2 27.2 27.2 71.8 0 99l-84.9 84.9C548 825.1 530 831.9 512.1 831.9h-0.1-0.1c-18 0-35.9-6.8-49.6-20.4l-84.9-84.9c-27.2-27.2-27.2-71.8 0-99 17.4-17.4 41.9-23.7 64.5-18.8v-154.9H287c4.9 22.6-1.3 47.1-18.8 64.6-27.2 27.2-71.8 27.2-99 0l-84.9-84.9C70.8 420 64 402 64 384v-0.1c0-1.2 0-2.4 0.1-3.6v-0.1c0.8-16.7 7.6-33.2 20.3-45.9l84.9-84.9c27.2-27.2 71.8-27.2 99 0 17.4 17.4 23.7 41.9 18.8 64.4H442V159c-22.5 4.9-47.1-1.4-64.5-18.8-27.2-27.2-27.2-71.8 0-99l84.9-84.9c13.6-13.6 31.6-20.4 49.6-20.4h0.2c18 0 35.9 6.8 49.6 20.4l84.9 84.9c27.2 27.2 27.2 71.8 0 99-17.4 17.4-41.9 23.7-64.5 18.8V313.9h154.9c-4.9-22.5 1.4-47 18.8-64.4 27.2-27.2 71.8-27.2 99 0l84.9 84.9c12.7 12.7 19.5 29.2 20.3 45.9v0.1c0.1 1.2 0.1 2.4 0.1 3.6v0.1c-0.2 17.9-7 35.9-20.6 49.5z"  horiz-adv-x="1024" />

    
    <glyph glyph-name="db_display" unicode="&#59102;" d="M515.5 686.3c-247.4 0-448-134.3-448-300s200.6-300 448-300 448 134.3 448 300-200.6 300-448 300z m311.3-352.7c-13.4-21.2-34.6-41.8-61.3-59.7-64.1-42.9-155.3-67.6-250-67.6s-185.9 24.6-250 67.6c-26.8 17.9-48 38.6-61.3 59.7-11.2 17.8-16.7 35-16.7 52.7 0 17.7 5.5 34.9 16.7 52.7 13.4 21.2 34.6 41.8 61.3 59.7 64.1 42.9 155.3 67.6 250 67.6s185.9-24.6 250-67.6c26.8-17.9 48-38.6 61.3-59.7 11.2-17.8 16.7-35 16.7-52.7 0-17.7-5.5-34.9-16.7-52.7zM515.5 386.3m-140 0a140 140 0 1 1 280 0 140 140 0 1 1-280 0Z"  horiz-adv-x="1024" />

    
    <glyph glyph-name="db_hide" unicode="&#59103;" d="M802.5 616.6l39.9 39.9c23.3 23.3 23.3 61.5 0 84.9-23.3 23.3-61.5 23.3-84.9 0l-76.3-76.3C630 678.8 574 686.3 515.5 686.3c-247.4 0-448-134.3-448-300 0-81.1 48.1-154.7 126.2-208.7l-30.1-30.1c-23.3-23.3-23.3-61.5 0-84.9 23.3-23.3 61.5-23.3 84.9 0l58.2 58.2c62.3-22 133.4-34.5 208.8-34.5 247.4 0 448 134.3 448 300 0 92.6-62.6 175.3-161 230.3z m-537-342.7c-26.8 17.9-48 38.6-61.3 59.7-11.2 17.8-16.7 35-16.7 52.7 0 17.7 5.5 34.9 16.7 52.7 13.4 21.2 34.6 41.8 61.3 59.7 64.1 42.9 155.3 67.6 250 67.6 21.4 0 42.6-1.3 63.3-3.7L280.6 264.4c-5.2 3.1-10.3 6.2-15.1 9.5z m561.3 59.7c-13.4-21.2-34.6-41.8-61.3-59.7-64.1-42.9-155.3-67.6-250-67.6-38.3 0-76 4-111.6 11.7l309.2 309.3c18.9-8.3 36.5-17.8 52.4-28.5 26.8-17.9 48-38.6 61.3-59.7 11.2-17.8 16.7-35 16.7-52.7 0-17.8-5.5-35-16.7-52.8z"  horiz-adv-x="1024" />

    
    <glyph glyph-name="db_edit" unicode="&#59104;" d="M738.8 292v-236H207.7V712h299.2V832h-342c-42.4 0-77.1-31.5-77.1-70v-756c0-38.5 34.7-70 77.1-70h616.9c42.4 0 77.1 31.5 77.1 70V292H738.8zM507.8 772m-60 0a60 60 0 1 1 120 0 60 60 0 1 1-120 0ZM798.8 294.5m-60 0a60 60 0 1 1 120 0 60 60 0 1 1-120 0ZM918.8 691.9L508.7 281.7c-23.3-23.3-61.5-23.3-84.9 0-23.3 23.3-23.3 61.5 0 84.9L834 776.7c23.3 23.3 61.5 23.3 84.9 0 23.3-23.3 23.3-61.5-0.1-84.8z"  horiz-adv-x="1024" />

    
    <glyph glyph-name="db_horizontal" unicode="&#59105;" d="M880 694v-620H144V694h736m70 80H74c-5.5 0-10-4.5-10-10v-760c0-5.5 4.5-10 10-10h876c5.5 0 10 4.5 10 10V764c0 5.5-4.5 10-10 10zM512 473m-90 0a90 90 0 1 1 180 0 90 90 0 1 1-180 0ZM622 73H402c-27.5 0-50 22.5-50 50V303c0 27.5 22.5 50 50 50h220c27.5 0 50-22.5 50-50v-180c0-27.5-22.5-50-50-50z"  horiz-adv-x="1024" />

    
    <glyph glyph-name="db_left" unicode="&#59106;" d="M174-64H74c-5.5 0-10 4.5-10 10V822c0 5.5 4.5 10 10 10h100c5.5 0 10-4.5 10-10v-876c0-5.5-4.5-10-10-10zM240 602V742c0 5.5 4.5 10 10 10h700c5.5 0 10-4.5 10-10v-140c0-5.5-4.5-10-10-10H250c-5.5 0-10 4.5-10 10zM240 274V414c0 5.5 4.5 10 10 10h500c5.5 0 10-4.5 10-10v-140c0-5.5-4.5-10-10-10H250c-5.5 0-10 4.5-10 10z"  horiz-adv-x="1024" />

    
    <glyph glyph-name="db_itallic" unicode="&#59107;" d="M617.7 832.7h139.5c11.2 0 17.4-13.8 12.1-26.8L422.9-51.39999999999998c-3.2-7.9-9.9-13.2-16.7-13.2H266.8c-11.2 0-17.4 13.8-12.1 26.8L601.1 819.4c3.2 8 9.9 13.3 16.6 13.3z"  horiz-adv-x="1024" />

    
    <glyph glyph-name="db_log" unicode="&#59108;" d="M802 782.1h-80c-0.1 27.4-22.6 49.9-50 49.9H352c-27.4 0-49.9-22.4-50-49.8h-80c-33 0-60-27-60-60v-723.9c0-33 27-60 60-60h580c33 0 60 27 60 60V722.1c0 33-27 60-60 60z m-20-763.9H242V702.1h61c4.6-22.8 24.9-40.2 49-40.2h320c24.1 0 44.4 17.3 49 40.2h61v-683.9zM662 464.5H362c-22 0-40 18-40 40s18 40 40 40h300c22 0 40-18 40-40s-18-40-40-40zM632 298.6H392c-22 0-40 18-40 40s18 40 40 40h240c22 0 40-18 40-40s-18-40-40-40zM662 132.70000000000005H362c-22 0-40 18-40 40s18 40 40 40h300c22 0 40-18 40-40s-18-40-40-40z"  horiz-adv-x="1024" />

    
    <glyph glyph-name="db_magify" unicode="&#59109;" d="M942.1 37.4L709.5 270c-23.9 23.9-62.6 23.9-83.5 0-23.9-23.9-23.9-62.6 0-83.5l232.6-232.6c23.9-23.9 62.6-23.9 83.5 0 23.9 23.9 23.9 62.6 0 83.5zM626.3 735.7c-128.4 128.4-337.6 128.4-466 0s-128.4-337.6 0-466 337.6-128.4 466 0 128.5 337.5 0 466z m-83.6-382.4c-81.5-81.5-214.2-81.5-295.7 0s-81.5 214.2 0 295.7 214.2 81.5 295.7 0 81.4-214.2 0-295.7z"  horiz-adv-x="1024" />

    
    <glyph glyph-name="db_minus" unicode="&#59110;" d="M890 314H134c-38.5 0-70 31.5-70 70s31.5 70 70 70h756c38.5 0 70-31.5 70-70s-31.5-70-70-70z"  horiz-adv-x="1024" />

    
    <glyph glyph-name="db_stretch" unicode="&#59111;" d="M890.4 828.9h-310c-38.5 0-70-31.5-70-70s31.5-70 70-70h141L210.6 178.1v31c0 38.5-31.5 70-70 70s-70-31.5-70-70v-200c0-38.5 31.5-70 70-70h200c38.5 0 70 31.5 70 70s-31.5 70-70 70h-31l510.8 510.8v-141c0-38.5 31.5-70 70-70s70 31.5 70 70v310c0 38.5-31.5 70-70 70z"  horiz-adv-x="1024" />

    
    <glyph glyph-name="db_right" unicode="&#59112;" d="M950-64H850c-5.5 0-10 4.5-10 10V822c0 5.5 4.5 10 10 10h100c5.5 0 10-4.5 10-10v-876c0-5.5-4.5-10-10-10zM64 602V742c0 5.5 4.5 10 10 10h700c5.5 0 10-4.5 10-10v-140c0-5.5-4.5-10-10-10H74c-5.5 0-10 4.5-10 10zM264 274V414c0 5.5 4.5 10 10 10h500c5.5 0 10-4.5 10-10v-140c0-5.5-4.5-10-10-10H274c-5.5 0-10 4.5-10 10z"  horiz-adv-x="1024" />

    
    <glyph glyph-name="db_plus" unicode="&#59113;" d="M890 454H582V762c0 38.5-31.5 70-70 70s-70-31.5-70-70v-308H134c-38.5 0-70-31.5-70-70s31.5-70 70-70h308v-308c0-38.5 31.5-70 70-70s70 31.5 70 70V314h308c38.5 0 70 31.5 70 70s-31.5 70-70 70z"  horiz-adv-x="1024" />

    
    <glyph glyph-name="db_refresh" unicode="&#59114;" d="M869.7 246.39999999999998c0 33-27 60-60 60h-0.6c-26.9 0-49.8-17.9-57.4-42.4-44-87.8-134.8-148-239.7-148-103.1 0-192.6 58.3-237.4 143.7-6.1 26.7-30 46.8-58.5 46.8-33 0-60-27-60-60V56c0-33 27-60 60-60s60 27 60 60v20c65.4-50.2 147.2-80 235.9-80 153.9 0 286.9 89.6 349.6 219.5 0.2 0.5 0.4 0.9 0.6 1.3 4.8 8.6 7.5 18.5 7.5 28.9v0.7zM214.8 461.6h1.2c28.5 0 52.4 20.1 58.5 46.8C319.4 593.7 408.9 652 512 652c104.9 0 195.7-60.2 239.7-148 7.6-24.5 30.5-42.4 57.4-42.4 33 0 60 27 60 60V712c0 33-27 60-60 60s-60-27-60-60v-20.8C683.5 741.8 601.3 772 512 772c-154.2 0-287.4-89.9-350-220.2-0.3-0.6-0.4-1.1-0.5-1.6-4.3-8.2-6.7-17.5-6.7-27.4v-1.2c0-33 27-60 60-60z"  horiz-adv-x="1024" />

    
    <glyph glyph-name="db_text" unicode="&#59115;" d="M903.7 603.8h-798c-5.5 0-10 4.5-10 10v120c0 5.5 4.5 10 10 10h798c5.5 0 10-4.5 10-10v-120c0-5.5-4.5-10-10-10zM903.7-10.399999999999977h-798c-5.5 0-10 4.5-10 10v120c0 5.5 4.5 10 10 10h798c5.5 0 10-4.5 10-10v-120c0-5.5-4.5-10-10-10zM434.7 173.39999999999998V733.8c0 5.5 4.5 10 10 10h120c5.5 0 10-4.5 10-10v-560.4c0-5.5-4.5-10-10-10h-120c-5.5 0-10 4.5-10 10z"  horiz-adv-x="1024" />

    
    <glyph glyph-name="db_textCenter" unicode="&#59116;" d="M64.5 772c0 33 27 60 60 60h775c33 0 60-27 60-60s-27-60-60-60h-775c-33 0-60 27-60 60zM64.5-4c0 33 27 60 60 60h775c33 0 60-27 60-60s-27-60-60-60h-775c-33 0-60 27-60 60zM152.2 513.3c0 33 27 60 60 60h599.5c33 0 60-27 60-60s-27-60-60-60H212.2c-33 0-60 27-60 60zM232 254.7c0 33 27 60 60 60h440c33 0 60-27 60-60s-27-60-60-60H292c-33 0-60 27-60 60z"  horiz-adv-x="1024" />

    
    <glyph glyph-name="db_textLeft" unicode="&#59117;" d="M64 772c0 33 27 60 60 60h775c33 0 60-27 60-60s-27-60-60-60H124c-33 0-60 27-60 60zM64 254.7c0 33 27 60 60 60h775c33 0 60-27 60-60s-27-60-60-60H124c-33 0-60 27-60 60zM64.2 513.3c0 33 27 60 60 60h599.5c33 0 60-27 60-60s-27-60-60-60H124.2c-33 0-60 27-60 60zM64.2-4c0 33 27 60 60 60h599.5c33 0 60-27 60-60s-27-60-60-60H124.2c-33 0-60 27-60 60z"  horiz-adv-x="1024" />

    
    <glyph glyph-name="db_trash" unicode="&#59118;" d="M847.3 562H147.5c-33 0-60 27-60 60s27 60 60 60h699.8c33 0 60-27 60-60s-27-60-60-60zM787.9-64h-581c-33 0-60 27-60 60s27 60 60 60H788c33 0 60-27 60-60-0.1-33-27.1-60-60.1-60zM147.4-4V452c0 33 27 60 60 60s60-27 60-60v-456c0-33-27-60-60-60s-60 27-60 60zM727.9-4V452c0 33 27 60 60 60s60-27 60-60v-456c0-33-27-60-60-60s-60 27-60 60zM529.1 211.5v130c0 33 27 60 60 60s60-27 60-60v-130c0-33-27-60-60-60s-60 27-60 60zM346 211.5v130c0 33 27 60 60 60s60-27 60-60v-130c0-33-27-60-60-60s-60 27-60 60zM526.6 712h-58.4c-33 0-60 27-60 60s27 60 60 60h58.4c33 0 60-27 60-60s-27-60-60-60z"  horiz-adv-x="1024" />

    
    <glyph glyph-name="db_textRight" unicode="&#59119;" d="M64 772c0 33 27 60 60 60h775c33 0 60-27 60-60s-27-60-60-60H124c-33 0-60 27-60 60zM64 254.7c0 33 27 60 60 60h775c33 0 60-27 60-60s-27-60-60-60H124c-33 0-60 27-60 60zM239.5 513.3c0 33 27 60 60 60H899c33 0 60-27 60-60s-27-60-60-60H299.5c-33 0-60 27-60 60zM239.5-4c0 33 27 60 60 60H899c33 0 60-27 60-60s-27-60-60-60H299.5c-33 0-60 27-60 60z"  horiz-adv-x="1024" />

    
    <glyph glyph-name="db_triangle" unicode="&#59120;" d="M561.7 95.8l377.1 380.6c43.8 44.2 12.5 119.3-49.7 119.3H134.9c-62.2 0-93.5-75.1-49.7-119.3l377.1-380.6c27.4-27.7 72-27.7 99.4 0z"  horiz-adv-x="1024" />

    
    <glyph glyph-name="db_underline" unicode="&#59121;" d="M940 54.299999999999955H84c-11 0-20-9-20-20v-79c0-11 9-20 20-20h856c11 0 20 9 20 20v79c0 11.1-9 20-20 20zM513.1 156.39999999999998c194.4 0 307.2 90.5 307.2 310.9V812c0 11-9 20-20 20H687.7c-11 0-20-9-20-20v-356.3c0-138-60.1-184.6-154.7-184.6-93.4 0-150.4 46.6-150.4 184.6V812c0 11-9 20-20 20h-119c-11 0-20-9-20-20v-344.7c0.1-220.4 116.1-310.9 309.5-310.9z"  horiz-adv-x="1024" />

    
    <glyph glyph-name="db_undocircle" unicode="&#59122;" d="M512 832c-129.5 0-246.2-55-328-142.9v37.1c0 33-27 60-60 60s-60-27-60-60v-190.4c0-33 27-60 60-60h190.4c33 0 60 27 60 60s-27 60-60 60h-52.9c5.9 6.9 12 13.7 18.5 20.1 30.2 30.2 65.3 53.8 104.3 70.3C424.7 703.3 467.7 712 512 712s87.3-8.7 127.6-25.7c39-16.5 74.1-40.2 104.3-70.3 30.2-30.2 53.8-65.3 70.3-104.3C831.3 471.3 840 428.3 840 384s-8.7-87.3-25.7-127.6c-16.5-39-40.2-74.1-70.3-104.3-30.2-30.2-65.3-53.8-104.3-70.3C599.3 64.7 556.3 56 512 56s-87.3 8.7-127.6 25.7c-39 16.5-74.1 40.2-104.3 70.3-13.6 13.6-25.9 28.2-36.8 43.7l-0.1-0.1c-11 13.8-27.9 22.6-46.8 22.6-33 0-60-27-60-60 0-11.4 3.2-22 8.7-31.1 0.3-0.7 0.7-1.4 1.3-2.2C227.6 10.6 361.1-64 512-64c247.4 0 448 200.6 448 448S759.4 832 512 832z"  horiz-adv-x="1024" />

    
    <glyph glyph-name="db_undo" unicode="&#59123;" d="M855.1 360.4C819.3 533.1 666.8 655.7 481 681.5V801.7c0 26.7-32.2 40.1-51.1 21.3l-260-257.6c-11.9-11.7-11.9-30.9 0-42.6l260-257.6c18.9-18.8 51.1-5.4 51.1 21.3V409.1c57.6-21.2 107.8-56.7 145.1-106.4 74-98.5 80.4-230.4 29.9-353.4-3.7-9 6.7-17.3 14.7-11.7 140.7 100.2 217.8 261.7 184.4 422.8z"  horiz-adv-x="1024" />

    
    <glyph glyph-name="db_vertical" unicode="&#59124;" d="M822 752v-736H202V752h620m70 80H132c-5.5 0-10-4.5-10-10v-876c0-5.5 4.5-10 10-10h760c5.5 0 10 4.5 10 10V822c0 5.5-4.5 10-10 10zM512 581.9m-90 0a90 90 0 1 1 180 0 90 90 0 1 1-180 0ZM622 181.9H402c-27.5 0-50 22.5-50 50v180c0 27.5 22.5 50 50 50h220c27.5 0 50-22.5 50-50v-180c0-27.5-22.5-50-50-50zM572 16H452c-16.5 0-30 13.5-30 30V206c0 16.5 13.5 30 30 30h120c16.5 0 30-13.5 30-30v-160c0-16.5-13.5-30-30-30z"  horiz-adv-x="1024" />

    
    <glyph glyph-name="db_world" unicode="&#59125;" d="M960 384c0 247.4-200.6 448-448 448S64 631.4 64 384s200.6-448 448-448 448 200.6 448 448z m-113.7 50h-85.9c-5.2 83.9-23.3 160.8-50.7 224.2 14.5-10.5 28.4-22.3 41.3-35.2 51.9-51.9 84.8-117.7 95.3-189zM462 705.6V434h-98.2c6 83 26.6 160.5 58.7 218.1 12.3 21.8 25.8 40 39.5 53.5z m0-371.6v-271.6c-13.7 13.5-27.2 31.7-39.5 53.6-32.1 57.5-52.7 135-58.7 218H462z m100-271.6V334h98.2c-6-83-26.6-160.5-58.7-218.1-12.3-21.8-25.8-40-39.5-53.5z m0 371.6V705.6c13.7-13.5 27.2-31.7 39.5-53.6 32.1-57.5 52.8-135.1 58.7-218.1H562zM273 623c12.9 12.9 26.8 24.7 41.3 35.2-27.4-63.4-45.5-140.3-50.7-224.2h-85.9c10.5 71.3 43.4 137.1 95.3 189z m-95.3-289h85.9c5.2-83.9 23.3-160.8 50.7-224.2-14.5 10.5-28.4 22.3-41.3 35.2-51.9 51.9-84.8 117.7-95.3 189zM751 145c-12.9-12.9-26.8-24.7-41.3-35.2 27.4 63.4 45.5 140.3 50.7 224.2h85.9c-10.5-71.3-43.4-137.1-95.3-189z"  horiz-adv-x="1024" />

    
    <glyph glyph-name="db_export" unicode="&#59126;" d="M583.7 762v-460c0-38.5-31.5-70-70-70s-70 31.5-70 70V762c0 38.5 31.5 70 70 70s70-31.5 70-70zM563.3 712.6L379.5 528.7c-27.2-27.2-71.8-27.2-99 0-27.2 27.2-27.2 71.8 0 99L464.3 811.6c27.2 27.2 71.8 27.2 99 0 27.3-27.2 27.3-71.8 0-99zM563.2 811.6L747 627.7c27.2-27.2 27.2-71.8 0-99-27.2-27.2-71.8-27.2-99 0L464.2 712.6c-27.2 27.2-27.2 71.8 0 99 27.2 27.2 71.7 27.2 99 0zM890-64H137.5c-38.5 0-70 31.5-70 70s31.5 70 70 70H890c38.5 0 70-31.5 70-70s-31.5-70-70-70zM204 366v-360c0-38.5-31.5-70-70-70s-70 31.5-70 70V366c0 38.5 31.5 70 70 70s70-31.5 70-70zM960 366v-360c0-38.5-31.5-70-70-70s-70 31.5-70 70V366c0 38.5 31.5 70 70 70s70-31.5 70-70z"  horiz-adv-x="1024" />

    
    <glyph glyph-name="db_alert" unicode="&#59127;" d="M512 712c44.3 0 87.3-8.7 127.6-25.7 39-16.5 74.1-40.2 104.3-70.3 30.2-30.2 53.8-65.3 70.3-104.3C831.3 471.3 840 428.3 840 384s-8.7-87.3-25.7-127.6c-16.5-39-40.2-74.1-70.3-104.3-30.2-30.2-65.3-53.8-104.3-70.3C599.3 64.70000000000005 556.3 56 512 56s-87.3 8.7-127.6 25.7c-39 16.5-74.1 40.2-104.3 70.3-30.2 30.2-53.8 65.3-70.3 104.3C192.7 296.70000000000005 184 339.70000000000005 184 384s8.7 87.3 25.7 127.6c16.5 39 40.2 74.1 70.3 104.3 30.2 30.2 65.3 53.8 104.3 70.3C424.7 703.3 467.7 712 512 712m0 120C264.6 832 64 631.4 64 384s200.6-448 448-448 448 200.6 448 448S759.4 832 512 832zM512 670.4c-33 0-60-27-60-60v-280c0-33 27-60 60-60s60 27 60 60v280c0 33-27 60-60 60zM512 230.39999999999998c-33.1 0-60-26.9-60-60s26.9-60 60-60 60 26.9 60 60c0 33.2-26.9 60-60 60z"  horiz-adv-x="1024" />

    
    <glyph glyph-name="db_lock" unicode="&#59128;" d="M656.6 832H367.4C281.9 832 212 762.1 212 676.6V496c0-55 45-100 100-100h400c55 0 100 45 100 100V676.6C812 762.1 742.1 832 656.6 832zM692 516H332V656.6c0 30.6 24.8 55.4 55.4 55.4h249.3c30.6 0 55.4-24.8 55.4-55.4V516zM672 161.10000000000002H356c-11 0-20 9-20 20v80c0 11 9 20 20 20h316c11 0 20-9 20-20v-80c0-11-9-20-20-20zM835 516H189c-55 0-100-45-100-100v-230c0-137.5 112.5-250 250-250h346c137.5 0 250 112.5 250 250V416c0 55-45 100-100 100z m-20-330c0-34.4-13.6-67-38.3-91.7C752 69.60000000000002 719.4 56 685 56H339c-34.4 0-67 13.6-91.7 38.3C222.6 119 209 151.60000000000002 209 186V396h606v-210z"  horiz-adv-x="1024" />

    
    <glyph glyph-name="db_user" unicode="&#59129;" d="M512 832c-127.1 0-230.2-103.1-230.2-230.2S384.9 371.6 512 371.6s230.2 103.1 230.2 230.2S639.1 832 512 832zM512 341.6c-247.4 0-448-225.6-448-324 0-45.5 200.6-81.6 448-81.6s448 37.9 448 81.6c0 98.4-200.6 324-448 324z"  horiz-adv-x="1024" />

    
    <glyph glyph-name="db_ovalcross" unicode="&#59130;" d="M512 832C264.6 832 64 631.4 64 384s200.6-448 448-448 448 200.6 448 448S759.4 832 512 832z m230-499V435h94.1c2.6-16.7 3.9-33.8 3.9-51s-1.3-34.2-3.9-51H742zM632 78.6c-21-8.3-42.8-14.3-65-18V223h65v-144.4zM392 223h65v-162.4c-22.2 3.7-44 9.7-65 18V223zM187.9 333c-2.6 16.7-3.9 33.8-3.9 51s1.3 34.2 3.9 51H282v-102h-94.1zM392 435h65v-102h-65V435z m0 254.4c21 8.3 42.8 14.3 65 18V545h-65V689.4zM632 545h-65V707.4c22.2-3.7 44-9.7 65-18V545z m-65-212V435h65v-102h-65z m230.9 212H742v72.8c0.6-0.6 1.3-1.2 1.9-1.9 21.3-21.3 39.4-45 54-70.9zM282 617.8V545h-55.9c14.6 25.9 32.6 49.6 53.9 71 0.7 0.6 1.4 1.2 2 1.8zM226.1 223H282v-72.8c-0.6 0.6-1.3 1.2-1.9 1.9-21.3 21.3-39.4 45-54 70.9zM742 150.2V223h55.9c-14.6-25.9-32.6-49.6-53.9-71-0.7-0.6-1.4-1.2-2-1.8z"  horiz-adv-x="1024" />

    
    <glyph glyph-name="db_ovalsingle" unicode="&#59131;" d="M512 832C264.6 832 64 631.4 64 384s200.6-448 448-448 448 200.6 448 448S759.4 832 512 832zM184 384c0 44.3 8.7 87.3 25.7 127.6 13.1 30.9 30.6 59.3 52.3 84.7v-424.7c-21.7 25.4-39.2 53.8-52.3 84.7-17 40.4-25.7 83.4-25.7 127.7z m188-296.7V680.7c4.1 1.9 8.2 3.8 12.4 5.6 23.4 9.9 47.7 17 72.6 21.1v-646.8c-24.9 4.2-49.2 11.2-72.6 21.1-4.2 1.8-8.3 3.7-12.4 5.6z m195-26.7V707.4c24.9-4.2 49.2-11.2 72.6-21.1 4.2-1.8 8.3-3.6 12.4-5.6v-593.4c-4.1-1.9-8.2-3.8-12.4-5.6-23.4-9.9-47.7-16.9-72.6-21.1z m247.3 195.8c-13.1-30.9-30.6-59.3-52.3-84.7V596.3c21.7-25.4 39.2-53.8 52.3-84.7 17-40.3 25.7-83.3 25.7-127.6s-8.7-87.3-25.7-127.6z"  horiz-adv-x="1024" />

    
    <glyph glyph-name="db_group" unicode="&#59134;" d="M64 692c0 38.5 31.5 70 70 70h756c38.5 0 70-31.5 70-70s-31.5-70-70-70H134c-38.5 0-70 31.5-70 70zM302 76c0 38.5 31.5 70 70 70h280c38.5 0 70-31.5 70-70s-31.5-70-70-70H372c-38.5 0-70 31.5-70 70zM162 384c0 38.5 31.5 70 70 70h560c38.5 0 70-31.5 70-70s-31.5-70-70-70H232c-38.5 0-70 31.5-70 70z"  horiz-adv-x="1024" />

    
    <glyph glyph-name="db_projectbase" unicode="&#59135;" d="M426.1 714.7h-300c-33 0-60-27-60-60v-179.5c0-33 27-60 60-60h300c33 0 60 27 60 60V654.7c0 33-27 60-60 60zM882.1 634.2v-139.5h-260V634.2h260m20 80h-300c-33 0-60-27-60-60v-179.5c0-33 27-60 60-60h300c33 0 60 27 60 60V654.2c0 33-27 60-60 60zM406.1 284.7v-139.5h-260V284.7h260m20 80h-300c-33 0-60-27-60-60v-179.5c0-33 27-60 60-60h300c33 0 60 27 60 60V304.7c0 33-27 60-60 60zM882.1 284.2v-139.5h-260V284.2h260m20 80h-300c-33 0-60-27-60-60v-179.5c0-33 27-60 60-60h300c33 0 60 27 60 60V304.2c0 33-27 60-60 60z"  horiz-adv-x="1024" />

    
    <glyph glyph-name="db_sort" unicode="&#59136;" d="M924.5 534.2L761.2 817c-11.5 20-40.4 20-52 0L546 534.2c-11.5-20 2.9-45 26-45h104.8c-1-4.3-1.5-8.7-1.5-13.2v-480c0-33 27-60 60-60s60 27 60 60V476c0 4.5-0.5 9-1.5 13.2h104.8c23 0 37.4 25 25.9 45zM458.5 278.79999999999995H353.7c1 4.3 1.5 8.7 1.5 13.2V772c0 33-27 60-60 60s-60-27-60-60v-480c0-4.5 0.5-9 1.5-13.2H132c-23.1 0-37.5-25-26-45L269.2-49c11.5-20 40.4-20 52 0l163.3 282.8c11.5 20-2.9 45-26 45z"  horiz-adv-x="1024" />

    
    <glyph glyph-name="db_run" unicode="&#59137;" d="M887.9 824c-6.9-0.5-13.9-2-20.8-4.8L119.2 519c-44.7-18.1-51.4-74.2-12.2-101l162.5-125.6c11-13.1 27.5-21.4 45.9-21.4 33.1 0 60 26.9 60 60 0 22.1-12 41.5-29.8 51.9v0.2l-88.2 61.1L817.3 671l-68-562.9-185.6 127.1 113.7 160.7c19.1 26.9 12.6 64.6-14.3 83.6-26.9 19.1-64.6 12.6-83.6-14.3L433.3 258.6c-5.5-7.8-8.9-16.5-10.3-25.4-1.6-4.9-2.6-10.2-2.8-15.6l-9.6-216.9c-1.5-33 24.3-61.1 57.3-62.6s61.1 24.3 62.6 57.3l5 113.2 226.9-155.3c13-8.9 27.8-12.3 42-11.4 28.7 2 54.8 22 58.5 52.1l92.5 764.9c4.5 37.9-29.8 67.7-67.5 65.1z"  horiz-adv-x="1024" />

    
    <glyph glyph-name="db_download" unicode="&#59138;" d="M437.4 302V762c0 38.5 31.5 70 70 70s70-31.5 70-70v-460c0-38.5-31.5-70-70-70s-70 31.5-70 70zM457.8 294.6l224.3 224.3c27.2 27.2 71.8 27.2 99 0 27.2-27.2 27.2-71.8 0-99L556.8 195.6c-27.2-27.2-71.8-27.2-99 0-27.2 27.2-27.2 71.7 0 99zM331.4 518.9l224.3-224.3c27.2-27.2 27.2-71.8 0-99-27.2-27.2-71.8-27.2-99 0L232.4 419.9c-27.2 27.2-27.2 71.8 0 99 27.2 27.2 71.8 27.2 99 0zM890-64H134c-38.5 0-70 31.5-70 70s31.5 70 70 70h756c38.5 0 70-31.5 70-70s-31.5-70-70-70z"  horiz-adv-x="1024" />

    
    <glyph glyph-name="db_unlock" unicode="&#59139;" d="M835 516H189c-55 0-100-45-100-100v-230c0-137.5 112.5-250 250-250h346c137.5 0 250 112.5 250 250V416c0 55-45 100-100 100z m-20-330c0-34.4-13.6-67-38.3-91.7C752 69.6 719.4 56 685 56H339c-34.4 0-67 13.6-91.7 38.3C222.6 119 209 151.6 209 186V396h606v-210zM605 515c-1.7 0-3.3 0.4-4.8 1H332V656.6c0 30.6 24.8 55.4 55.4 55.4h249.3c30.6 0 55.4-24.8 55.4-55.4V635c0-11 9-20 20-20h80c11 0 20 9 20 20v41.6C812 762.1 742.1 832 656.6 832H367.4C281.9 832 212 762.1 212 676.6V496c0-55 45-100 100-100h400c55 0 100 45 100 100v19H605z"  horiz-adv-x="1024" />

    
    <glyph glyph-name="db_pause" unicode="&#59141;" d="M295.5-65c-38.7 0-70 31.3-70 70V761c0 38.7 31.3 70 70 70s70-31.3 70-70v-756c0-38.6-31.4-70-70-70zM735.5-65c-38.7 0-70 31.3-70 70V761c0 38.7 31.3 70 70 70s70-31.3 70-70v-756c0-38.6-31.4-70-70-70z"  horiz-adv-x="1024" />

    
    <glyph glyph-name="db_exit" unicode="&#59142;" d="M802 569.7c33.1 0 60 26.9 60 60V774c0 32-26 58-58 58H145.7c-32 0-58-26-58-58v-781c0-32 26-58 58-58H802c0.9 0 1.8 0 2.6 0.1 31.9 1.3 57.4 27.7 57.4 59.9 0 33.1-26.9 60-60 60H207.7V712H742v-82.3c0-33.2 26.9-60 60-60zM900 232.1H369.9c-33 0-60 27-60 60s27 60 60 60H900c33 0 60-27 60-60s-27-60-60-60zM857.6 249.6L730.4 376.9c-23.3 23.3-23.3 61.5 0 84.9 23.3 23.3 61.5 23.3 84.9 0l127.3-127.3c23.3-23.3 23.3-61.5 0-84.9-23.4-23.3-61.6-23.3-85 0zM942.5 249.8L815.2 122.5c-23.3-23.3-61.5-23.3-84.9 0-23.3 23.3-23.3 61.5 0 84.9l127.3 127.3c23.3 23.3 61.5 23.3 84.9 0 23.3-23.4 23.3-61.6 0-84.9z"  horiz-adv-x="1024" />

    
    <glyph glyph-name="db_fullscreen" unicode="&#59143;" d="M942.3 729.5L708.6 495.7c-23.3-23.3-61.5-23.3-84.9 0-23.3 23.3-23.3 61.5 0 84.9L857.5 814.3c23.3 23.3 61.5 23.3 84.9 0 23.3-23.3 23.3-61.5-0.1-84.8zM900 711.9H720c-33 0-60 27-60 60s27 60 60 60h180c33 0 60-27 60-60s-27-60-60-60zM959.9 772v-180c0-33-27-60-60-60s-60 27-60 60V772c0 33 27 60 60 60s60-27 60-60zM166.5 814.3l233.7-233.7c23.3-23.3 23.3-61.5 0-84.9-23.3-23.3-61.5-23.3-84.9 0L81.7 729.5c-23.3 23.3-23.3 61.5 0 84.9 23.3 23.3 61.5 23.3 84.8-0.1zM184.1 772v-180c0-33-27-60-60-60s-60 27-60 60V772c0 33 27 60 60 60s60-27 60-60zM124 831.9h180c33 0 60-27 60-60s-27-60-60-60H124c-33 0-60 27-60 60s27 60 60 60zM81.7 38.5l233.7 233.7c23.3 23.3 61.5 23.3 84.9 0 23.3-23.3 23.3-61.5 0-84.9L166.5-46.3c-23.3-23.3-61.5-23.3-84.9 0-23.3 23.3-23.3 61.5 0.1 84.8zM124 56.1h180c33 0 60-27 60-60s-27-60-60-60H124c-33 0-60 27-60 60s27 60 60 60zM64.1-4V176c0 33 27 60 60 60s60-27 60-60v-180c0-33-27-60-60-60s-60 27-60 60zM857.5-46.3L623.7 187.4c-23.3 23.3-23.3 61.5 0 84.9 23.3 23.3 61.5 23.3 84.9 0l233.7-233.7c23.3-23.3 23.3-61.5 0-84.9-23.3-23.4-61.5-23.4-84.8 0zM839.9-4V176c0 33 27 60 60 60s60-27 60-60v-180c0-33-27-60-60-60s-60 27-60 60zM900-63.9H720c-33 0-60 27-60 60s27 60 60 60h180c33 0 60-27 60-60s-27-60-60-60zM512 771.9m-60 0a60 60 0 1 1 120 0 60 60 0 1 1-120 0ZM512-3.9m-60 0a60 60 0 1 1 120 0 60 60 0 1 1-120 0ZM899.9 384m-60 0a60 60 0 1 1 120 0 60 60 0 1 1-120 0ZM124.1 384m-60 0a60 60 0 1 1 120 0 60 60 0 1 1-120 0Z"  horiz-adv-x="1024" />

    
    <glyph glyph-name="db_standardview" unicode="&#59144;" d="M623.9 580.8L857.6 814.5c23.3 23.3 61.5 23.3 84.9 0 23.3-23.3 23.3-61.5 0-84.9L708.8 495.9c-23.3-23.3-61.5-23.3-84.9 0-23.3 23.3-23.3 61.5 0 84.9zM666.2 598.3h180c33 0 60-27 60-60s-27-60-60-60h-180c-33 0-60 27-60 60s27 60 60 60zM606.3 538.2v180c0 33 27 60 60 60s60-27 60-60v-180c0-33-27-60-60-60s-60 27-60 60zM315.2 495.9L81.5 729.6c-23.3 23.3-23.3 61.5 0 84.9 23.3 23.3 61.5 23.3 84.9 0l233.7-233.7c23.3-23.3 23.3-61.5 0-84.9-23.3-23.3-61.5-23.3-84.9 0zM297.7 538.2v180c0 33 27 60 60 60s60-27 60-60v-180c0-33-27-60-60-60s-60 27-60 60zM357.8 478.3h-180c-33 0-60 27-60 60s27 60 60 60h180c33 0 60-27 60-60s-27-60-60-60zM400.1 187.2L166.4-46.5c-23.3-23.3-61.5-23.3-84.9 0-23.3 23.3-23.3 61.5 0 84.9l233.7 233.7c23.3 23.3 61.5 23.3 84.9 0 23.3-23.3 23.3-61.5 0-84.9zM357.8 169.7h-180c-33 0-60 27-60 60s27 60 60 60h180c33 0 60-27 60-60s-27-60-60-60zM417.7 229.8v-180c0-33-27-60-60-60s-60 27-60 60v180c0 33 27 60 60 60s60-27 60-60zM708.8 272.1l233.7-233.7c23.3-23.3 23.3-61.5 0-84.9-23.3-23.3-61.5-23.3-84.9 0L623.9 187.2c-23.3 23.3-23.3 61.5 0 84.9 23.3 23.3 61.5 23.3 84.9 0zM726.3 229.8v-180c0-33-27-60-60-60s-60 27-60 60v180c0 33 27 60 60 60s60-27 60-60zM666.2 289.7h180c33 0 60-27 60-60s-27-60-60-60h-180c-33 0-60 27-60 60s27 60 60 60zM512 384m-60 0a60 60 0 1 1 120 0 60 60 0 1 1-120 0Z"  horiz-adv-x="1024" />

    
    <glyph glyph-name="dbc_copy" unicode="&#59147;" d="M906.9 686H394.1c-29.2 0-53.1-24-53.1-53.3v-643.4c0-29.3 23.9-53.3 53.1-53.3H907c29.2 0 53.1 24 53.1 53.3V632.7c-0.1 29.3-24 53.3-53.2 53.3zM441 586h419v-550H441zM629.9 832H117.1C87.9 832 64 808 64 778.7v-643.4C64 106 87.9 82 117.1 82H630c29.2 0 53.1 24 53.1 53.3V778.7C683 808 659.1 832 629.9 832zM164 732h419v-550H164zM224 415v50c0 27.6 22.4 50 50 50h249v-50c0-27.6-22.4-50-50-50H224zM224 576v50c0 27.6 22.4 50 50 50h249v-50c0-27.6-22.4-50-50-50H224zM224 254v50c0 27.6 22.4 50 50 50h249v-50c0-27.6-22.4-50-50-50H224z"  horiz-adv-x="1024" />

    
    <glyph glyph-name="db_canvas" unicode="&#59148;" d="M512 832c-110.6 0-211.8-40.1-289.9-106.5-19.7-14.5-37.1-31.9-51.6-51.6C104.1 595.8 64 494.6 64 384c0-247.4 200.6-448 448-448s448 200.6 448 448S759.4 832 512 832zM364 652c66.2 0 120-53.8 120-120s-53.8-120-120-120-120 53.8-120 120c0 25.3 7.9 48.7 21.2 68.1 4.8 5.4 9.7 10.7 14.8 15.9 5.1 5.1 10.4 10.1 15.9 14.8 19.4 13.3 42.8 21.2 68.1 21.2z m379.9-499.9C682 90.1 599.6 56 512 56s-170 34.1-231.9 96.1c-59.4 59.4-93.1 137.5-95.9 221 44-49.7 108.2-81 179.8-81 132.5 0 240 107.5 240 240 0 71.6-31.3 135.8-81 179.8 83.5-2.7 161.6-36.5 221-95.9 62-62 96.1-144.3 96.1-231.9s-34.2-170.1-96.2-232z"  horiz-adv-x="1024" />

    
    <glyph glyph-name="db_dashboard" unicode="&#59149;" d="M810 832H214c-82.5 0-150-67.5-150-150v-596c0-82.5 67.5-150 150-150h596c82.5 0 150 67.5 150 150V682c0 82.5-67.5 150-150 150zM424 592c0-66.2-53.8-120-120-120s-120 53.8-120 120 53.8 120 120 120 120-53.8 120-120z m416-506c0-16.3-13.7-30-30-30H214c-16.3 0-30 13.7-30 30V384.1c35.3-20.4 76.3-32.1 120-32.1 132.5 0 240 107.5 240 240 0 43.7-11.7 84.7-32.1 120H810c16.3 0 30-13.7 30-30v-596z"  horiz-adv-x="1024" />

    
    <glyph glyph-name="db_picbase" unicode="&#59150;" d="M910 744H114c-27.5 0-50-22.5-50-50v-620c0-27.5 22.5-50 50-50h796c27.5 0 50 22.5 50 50V694c0 27.5-22.5 50-50 50z m-50-100v-449.7L647.1 417.8c-7.3 9.2-21.4 9.2-28.7 0l-75.2-114-208.6 227c-7.3 9.2-21.4 9.2-28.7 0L164 279.9V644h696z"  horiz-adv-x="1024" />

    
    <glyph glyph-name="db_multiple" unicode="&#59151;" d="M960 384c0 50.7-52.2 96.5-136.1 129.2 36.2 82.5 40.7 151.7 4.9 187.6-35.8 35.8-105.1 31.3-187.6-4.9C608.5 779.8 562.7 832 512 832c-50.7 0-96.5-52.2-129.2-136.1-82.5 36.2-151.7 40.7-187.6 4.9-35.8-35.8-31.3-105.1 4.9-187.6C116.2 480.5 64 434.7 64 384s52.2-96.5 136.1-129.2c-36.2-82.5-40.7-151.7-4.9-187.6 35.8-35.8 105.1-31.3 187.6 4.9C415.5-11.8 461.3-64 512-64c50.7 0 96.5 52.2 129.2 136.1 82.5-36.2 151.7-40.7 187.6-4.9 35.8 35.8 31.3 105.1-4.9 187.6C907.8 287.5 960 333.3 960 384zM669.6 642.8c68.1 29 107.1 25.2 116.8 15.5s13.5-48.7-15.5-116.8c-1.3-3.1-2.7-6.3-4.2-9.4-27.2 7.6-56.5 13.9-87.6 19-5 31.1-11.4 60.4-19 87.6 3.2 1.4 6.3 2.8 9.5 4.1zM632 384c0-16.6-0.4-33-1.1-49.2-10.9-12-22.3-23.9-34-35.6s-23.6-23.1-35.6-34c-16.2-0.8-32.7-1.1-49.2-1.1s-33 0.4-49.2 1.1c-12 10.9-23.9 22.3-35.6 34s-23.1 23.6-34 35.6c-0.8 16.2-1.1 32.7-1.1 49.2s0.4 33 1.1 49.2c10.9 12 22.3 23.9 34 35.6s23.6 23.1 35.6 34c16.2 0.8 32.7 1.1 49.2 1.1s33-0.4 49.2-1.1c12-10.9 23.9-22.3 35.6-34s23.1-23.6 34-35.6c0.7-16.2 1.1-32.6 1.1-49.2z m-46.4 177.6c-8 7-15.9 13.7-23.9 20.3 14.9 10.3 29.6 19.7 44 28.2 4.2-16.2 7.9-33.3 11.1-51.1-10.3 1-20.7 1.9-31.2 2.6z m-147.2 0c-10.5-0.7-21-1.6-31.2-2.5 3.3 17.8 7 34.8 11.1 51.1 14.4-8.5 29.1-18 44-28.2-7.9-6.7-15.9-13.5-23.9-20.4z m-104-104c-7-8-13.7-15.9-20.3-23.9-10.3 14.9-19.7 29.6-28.2 44 16.2 4.2 33.3 7.9 51.1 11.1-1-10.3-1.9-20.7-2.6-31.2z m0-147.2c0.7-10.5 1.6-21 2.5-31.2-17.8 3.3-34.8 7-51.1 11.1 8.5 14.4 18 29.1 28.2 44 6.7-7.9 13.5-15.9 20.4-23.9z m104-104c8-7 15.9-13.7 23.9-20.3-14.9-10.3-29.6-19.7-44-28.2-4.2 16.2-7.9 33.3-11.1 51.1 10.3-1 20.7-1.9 31.2-2.6z m147.2 0c10.5 0.7 21 1.6 31.2 2.5-3.3-17.8-7-34.8-11.1-51.1-14.4 8.5-29.1 18-44 28.2 7.9 6.7 15.9 13.5 23.9 20.4z m104 104c7 8 13.7 15.9 20.3 23.9 10.3-14.9 19.7-29.6 28.2-44-16.2-4.2-33.3-7.9-51.1-11.1 1 10.3 1.9 20.7 2.6 31.2z m0 147.2c-0.7 10.5-1.6 21-2.5 31.2 17.8-3.3 34.8-7 51.1-11.1-8.5-14.4-18-29.1-28.2-44-6.7 7.9-13.5 15.9-20.4 23.9zM440.4 678.4C468 747.1 498.3 772 512 772s44-24.9 71.6-93.6c1.3-3.2 2.5-6.4 3.7-9.6-24.6-13.9-49.8-30.1-75.3-48.5-25.5 18.4-50.8 34.7-75.3 48.5 1.2 3.2 2.4 6.5 3.7 9.6zM253.2 541.6c-29 68.1-25.2 107.1-15.5 116.8s48.7 13.5 116.8-15.5c3.1-1.3 6.3-2.7 9.4-4.2-7.6-27.2-13.9-56.5-19-87.6-31.1-5-60.4-11.4-87.6-19-1.4 3.2-2.8 6.3-4.1 9.5z m-35.6-229.2C148.9 340 124 370.3 124 384s24.9 44 93.6 71.6c3.2 1.3 6.4 2.5 9.6 3.7 13.9-24.6 30.1-49.8 48.5-75.3-18.4-25.5-34.7-50.8-48.5-75.3-3.2 1.2-6.5 2.4-9.6 3.7z m136.8-187.2c-68.1-29-107.1-25.2-116.8-15.5s-13.5 48.7 15.5 116.8c1.3 3.1 2.7 6.3 4.2 9.4 27.2-7.6 56.5-13.9 87.6-19 5-31.1 11.4-60.4 19-87.6-3.2-1.4-6.3-2.8-9.5-4.1z m229.2-35.6C556 20.9 525.7-4 512-4s-44 24.9-71.6 93.6c-1.3 3.2-2.5 6.4-3.7 9.6 24.6 13.9 49.8 30.1 75.3 48.5 25.5-18.4 50.8-34.7 75.3-48.5-1.2-3.2-2.4-6.5-3.7-9.6z m187.2 136.8c29-68.1 25.2-107.1 15.5-116.8s-48.7-13.5-116.8 15.5c-3.1 1.3-6.3 2.7-9.4 4.2 7.6 27.2 13.9 56.5 19 87.6 31.1 5 60.4 11.4 87.6 19 1.4-3.2 2.8-6.3 4.1-9.5z m35.6 86c-3.2-1.3-6.4-2.5-9.6-3.7-13.9 24.6-30.1 49.8-48.5 75.3 18.4 25.5 34.7 50.8 48.5 75.3 3.2-1.2 6.5-2.5 9.6-3.7C875.1 428 900 397.7 900 384s-24.9-44-93.6-71.6z"  horiz-adv-x="1024" />

    
    <glyph glyph-name="db_building" unicode="&#59152;" d="M900 87.6h-13.7V487.9c0 43.8-35.8 79.6-79.6 79.6H594.6V707.4c0 51.2-41.9 93-93 93H230.3c-51.2 0-93-41.9-93-93v-619.8H124c-33 0-60-27-60-60s27-60 60-60h776c33 0 60 27 60 60s-27 60-60 60zM720 467.4h66.3v-89.6H720v89.6z m66.3-149.6v-230.3H720V317.8h66.3zM660 87.6h-65.4V317.8H660v-230.2z m0 379.8v-89.6h-65.4v89.6H660z m-422.7 233h257.3v-200.5c-0.6-3.9-0.9-7.9-0.9-12v-400.3H237.3V700.4zM328.1 597.5h-46c-6.6 0-12-5.4-12-12v-46c0-6.6 5.4-12 12-12h46c6.6 0 12 5.4 12 12v46c0 6.6-5.4 12-12 12zM449.7 597.5h-46c-6.6 0-12-5.4-12-12v-46c0-6.6 5.4-12 12-12h46c6.6 0 12 5.4 12 12v46c0 6.6-5.4 12-12 12zM328.1 472.8h-46c-6.6 0-12-5.4-12-12v-46c0-6.6 5.4-12 12-12h46c6.6 0 12 5.4 12 12v46c0 6.6-5.4 12-12 12zM449.7 472.8h-46c-6.6 0-12-5.4-12-12v-46c0-6.6 5.4-12 12-12h46c6.6 0 12 5.4 12 12v46c0 6.6-5.4 12-12 12z"  horiz-adv-x="1024" />

    
    <glyph glyph-name="db_shopCart" unicode="&#59153;" d="M832 675.2v-420H192v420h640m20 100H172c-44 0-80-36-80-80v-460c0-44 36-80 80-80h680c44 0 80 36 80 80v460c0 44-36 80-80 80zM738.1 92.8H285.9c-24.3 0-43.9-19.7-43.9-43.9v-12.2c0-24.3 19.7-43.9 43.9-43.9h452.2c24.3 0 43.9 19.7 43.9 43.9v12.2c0 24.3-19.7 43.9-43.9 43.9zM664.5 518.9c0 15.2-12.5 27.7-27.7 27.7H412.2l-26.4 85.9c-4.5 14.6-20 22.8-34.6 18.3-14.6-4.5-22.8-20-18.3-34.6L408.5 370c4.3-14.1 19.1-22.3 33.3-18.7h160.6c13.4-1.2 26 7.7 29.1 21.2l31.1 136.2c1.2 3.3 1.9 6.6 1.9 10.2z m-62.8-27.7l-19.3-84.4H455.1l-25.9 84.4h172.5zM423.5 306a27.7 23.8 90 1 1 47.6 0 27.7 23.8 90 1 1-47.6 0ZM563.8 306a27.7 23.8 90 1 1 47.6 0 27.7 23.8 90 1 1-47.6 0Z"  horiz-adv-x="1024" />

    
    <glyph glyph-name="db_star" unicode="&#59154;" d="M512 590.1l42.3-85.8c18.6-37.7 54.5-63.8 96.1-69.8l94.7-13.8-68.5-66.7c-30.1-29.3-43.8-71.5-36.7-112.9l16.2-94.3-84.7 44.5c-18.2 9.6-38.8 14.7-59.4 14.7s-41.1-5.1-59.4-14.7l-84.7-44.5 16.2 94.3c7.1 41.4-6.6 83.6-36.7 112.9l-68.5 66.8 94.7 13.8c41.6 6 77.5 32.1 96.1 69.8l42.3 85.7m0 191.2c-9.8 0-19.7-5.1-24.7-15.4L380 548.6c-4-8.1-11.8-13.8-20.8-15.1l-239.9-34.9c-22.6-3.3-31.7-31.1-15.3-47.1l173.6-169.2c6.5-6.3 9.5-15.5 7.9-24.4l-41-238.9c-3.1-17.8 11.1-32.3 27.2-32.3 4.2 0 8.6 1 12.8 3.2L499 102.7c4 2.1 8.4 3.2 12.8 3.2s8.8-1.1 12.8-3.2l214.5-112.8c4.2-2.2 8.6-3.2 12.8-3.2 16.1 0 30.3 14.5 27.2 32.3l-41 238.9c-1.5 9 1.4 18.1 7.9 24.4l174 169.2c16.4 16 7.3 43.8-15.3 47.1l-239.9 34.9c-9 1.3-16.8 7-20.8 15.1L536.7 765.9c-5 10.3-14.9 15.4-24.7 15.4z"  horiz-adv-x="1024" />

    
    <glyph glyph-name="db_layer" unicode="&#59155;" d="M872.6 610.4L540.7 823.7c-9.2 5.9-19.1 8.4-28.7 8.2-9.6 0.2-19.6-2.4-28.7-8.2L151.4 610.4c-31.5-20.3-31.5-66.3 0-86.6l331.9-213.4c9.2-5.9 19.1-8.4 28.7-8.2 9.6-0.2 19.6 2.4 28.7 8.2l331.9 213.4c31.5 20.3 31.5 66.3 0 86.6zM512 410.9L269 567.1l243 156.2 243-156.2-243-156.2zM890.4 418.6c-16.1 25.1-49.9 32.5-75 16.3L512 239.9l-303.4 195c-25.1 16.1-58.9 8.8-75-16.3s-8.8-58.9 16.3-75l332-213.4c9.2-5.9 19.6-8.7 29.8-8.6h0.8c10.2-0.1 20.6 2.6 29.8 8.6l332 213.4c24.9 16.1 32.3 49.9 16.1 75zM890.4 233c-16.1 25.1-49.9 32.5-75 16.3L512 54.3l-303.4 195c-25.1 16.1-58.9 8.8-75-16.3s-8.8-58.9 16.3-75l332-213.4c9.2-5.9 19.6-8.7 29.8-8.6h0.8c10.2-0.1 20.6 2.6 29.8 8.6l332 213.4c24.9 16.1 32.3 49.9 16.1 75z"  horiz-adv-x="1024" />

    
    <glyph glyph-name="db_projectBlock" unicode="&#59156;" d="M713.4 698.6l113.1-113.1-113.1-113.2-113.1 113.1 113.1 113.2m0 104c-23.1 0-46.1-8.8-63.6-26.3L522.5 649.1c-35-35-35-92.3 0-127.3l127.3-127.3c17.5-17.5 40.6-26.3 63.6-26.3s46.1 8.8 63.6 26.3l127.3 127.3c35 35 35 92.3 0 127.3L777.1 776.3c-17.5 17.5-40.6 26.3-63.7 26.3zM353.4 665.4v-160h-160v160h160m10 100h-180c-49.5 0-90-40.5-90-90v-180c0-49.5 40.5-90 90-90h180c49.5 0 90 40.5 90 90v180c0 49.5-40.5 90-90 90zM793.4 225.4v-160h-160v160h160m10 100h-180c-49.5 0-90-40.5-90-90v-180c0-49.5 40.5-90 90-90h180c49.5 0 90 40.5 90 90v180c0 49.5-40.5 90-90 90zM353.4 225.4v-160h-160v160h160m10 100h-180c-49.5 0-90-40.5-90-90v-180c0-49.5 40.5-90 90-90h180c49.5 0 90 40.5 90 90v180c0 49.5-40.5 90-90 90z"  horiz-adv-x="1024" />

    
    <glyph glyph-name="db_ban" unicode="&#59157;" d="M512 832c-123.7 0-235.7-50.1-316.8-131.2C114.1 619.7 64 507.7 64 384c0-247.4 200.6-448 448-448 123.7 0 235.7 50.1 316.8 131.2C909.9 148.3 960 260.3 960 384c0 247.4-200.6 448-448 448z m239-209c63.8-63.8 99-148.7 99-239 0-66.5-19.1-130-54.6-184.4L327.6 667.4C382 702.9 445.5 722 512 722c90.3 0 175.2-35.2 239-99zM273 145c-63.8 63.8-99 148.7-99 239 0 66.5 19.1 130 54.6 184.4l467.8-467.8C642 65.1 578.5 46 512 46c-90.3 0-175.2 35.2-239 99z"  horiz-adv-x="1024" />

    
    <glyph glyph-name="db_shopBag" unicode="&#59158;" d="M287.8 487.9c2.8-2.8 7.5-2.8 10.3 0l48.9 48.9c0.2 0.2 0.4 0.4 0.6 0.7 0.9 1 1.4 2.3 1.6 3.9l2.4 32.1v1.4l1.9 1.9c2.8-13.4 9.6-38.4 24.5-63.5 29.3-49.5 75-75.7 132.4-75.7 57.3 0 103.1 26.2 132.4 75.7 19.7 33.3 25.3 66.6 26.1 72.5 7.8 6.1 12.8 15.6 12.8 26.3 0 18.5-15 33.4-33.4 33.4s-33.4-15-33.4-33.4c0-10.2 4.6-19.3 11.8-25.4-2-9.7-7.4-31-19.8-52.1-21.6-36.6-54.1-55.1-96.4-55.1-42.1 0-74.4 18.3-96 54.5-12.6 21.2-18.2 43-20.2 52.7 7.2 6.1 11.7 15.2 11.7 25.4 0 18.5-15 33.4-33.4 33.4s-33.4-15-33.4-33.4c0-10.4 4.8-19.7 12.2-25.8l-5.5-5.5c-0.5 0.1-0.9 0.1-1.4 0l-32.1-2.4c-1.5-0.1-2.8-0.7-3.9-1.6-0.2-0.2-0.4-0.4-0.7-0.6l-48.9-48.9c-2.8-2.8-2.8-7.5 0-10.3l28.9-29.1z m38.1 79.1c3.3 3.3 8.6 3.3 11.8 0 3.3-3.3 3.3-8.6 0-11.8-3.3-3.3-8.6-3.3-11.8 0-3.3 3.2-3.3 8.5 0 11.8z m-57.1-40.4l35.5 35.5c1.1 1.1 2.9 1.1 3.9 0 1.1-1.1 1.1-2.9 0-3.9l-35.5-35.5c-1.1-1.1-2.9-1.1-3.9 0s-1.1 2.8 0 3.9zM817 832H207c-44 0-80-36-80-80v-736c0-44 36-80 80-80h610c44 0 80 36 80 80V752c0 44-36 80-80 80z m-20-719.8c-82.1-47.2-181-74.7-287.3-74.7-104.3 0-201.5 26.5-282.7 72.1V732h570v-619.8z"  horiz-adv-x="1024" />

    
    <glyph glyph-name="db_clock" unicode="&#59159;" d="M512 832C264.6 832 64 631.4 64 384s200.6-448 448-448 448 200.6 448 448S759.4 832 512 832z m239-687c-63.8-63.8-148.7-99-239-99s-175.2 35.2-239 99c-63.8 63.8-99 148.7-99 239 0 90.3 35.2 175.2 99 239 63.8 63.8 148.7 99 239 99s175.2-35.2 239-99c63.8-63.8 99-148.7 99-239 0-90.3-35.2-175.2-99-239zM722.2 319.2l-151.3 87.4V525c0 33-27 60-60 60s-60-27-60-60v-155.1c0-0.5 0-1.1 0.1-1.6 0-0.4 0.1-0.8 0.1-1.2 0-0.6 0.1-1.2 0.2-1.8 0-0.4 0.1-0.7 0.1-1.1l0.3-1.8c0.1-0.4 0.1-0.8 0.2-1.2 0.1-0.5 0.2-1 0.3-1.6 0.1-0.6 0.3-1.2 0.4-1.8 0.1-0.3 0.1-0.6 0.2-0.9 3.9-15.1 13.6-28.6 28-37l181.3-104.7c28.6-16.5 65.5-6.6 82 22s6.7 65.5-21.9 82z"  horiz-adv-x="1024" />

    
    <glyph glyph-name="db_fStar" unicode="&#59160;" d="M512 772c13.7 0 44-24.9 71.6-93.6 14.9-37.2 26.7-80.9 35.1-130.1C627.5 496.4 632 441.1 632 384s-4.5-112.4-13.3-164.3c-8.4-49.1-20.2-92.9-35.1-130.1C556 20.9 525.7-4 512-4c-13.7 0-44 24.9-71.6 93.6-14.9 37.2-26.7 80.9-35.1 130.1C396.5 271.6 392 326.9 392 384s4.5 112.4 13.3 164.3c8.4 49.1 20.2 92.9 35.1 130.1C468 747.1 498.3 772 512 772m0 60c-99.4 0-180-200.6-180-448s80.6-448 180-448 180 200.6 180 448S611.4 832 512 832zM786.4 658.4c9.7-9.7 13.5-48.7-15.5-116.8-15.7-36.9-38.3-76.2-67.2-116.8-30.5-43-66.4-85.2-106.8-125.6s-82.6-76.3-125.6-106.8c-40.7-28.8-79.9-51.4-116.8-67.2-68.1-29-107.1-25.2-116.8-15.5-9.7 9.7-13.5 48.7 15.5 116.8 15.7 36.9 38.3 76.2 67.2 116.8 30.5 43 66.4 85.2 106.8 125.6s82.6 76.3 125.6 106.8c40.6 28.8 79.9 51.4 116.8 67.2 68 29 107.1 25.1 116.8 15.5m42.4 42.4c-70.3 70.3-269.1-14.5-444.1-189.5S124.9 137.5 195.2 67.2s269.1 14.5 444.1 189.5c174.9 175 259.8 373.8 189.5 444.1zM900 384c0-13.7-24.9-44-93.6-71.6-37.2-14.9-80.9-26.7-130.1-35.1C624.4 268.5 569.1 264 512 264s-112.4 4.5-164.3 13.3c-49.1 8.4-92.9 20.2-130.1 35.1C148.9 340 124 370.3 124 384c0 13.7 24.9 44 93.6 71.6 37.2 14.9 80.9 26.7 130.1 35.1C399.6 499.5 454.9 504 512 504s112.4-4.5 164.3-13.3c49.1-8.4 92.9-20.2 130.1-35.1C875.1 428 900 397.7 900 384m60 0c0 99.4-200.6 180-448 180S64 483.4 64 384s200.6-180 448-180 448 80.6 448 180zM786.4 109.6c-9.7-9.7-48.7-13.5-116.8 15.5-36.9 15.7-76.2 38.3-116.8 67.2-43 30.5-85.2 66.4-125.6 106.8s-76.3 82.6-106.8 125.6c-28.8 40.7-51.4 79.9-67.2 116.8-29 68.1-25.2 107.1-15.5 116.8 9.7 9.7 48.7 13.5 116.8-15.5 36.9-15.7 76.2-38.3 116.8-67.2 43-30.5 85.2-66.4 125.6-106.8s76.3-82.6 106.8-125.6c28.8-40.6 51.4-79.9 67.2-116.8 29-68 25.1-107.1 15.5-116.8m42.4-42.4c70.3 70.3-14.5 269.1-189.5 444.1S265.5 771.1 195.2 700.8s14.5-269.1 189.5-444.1c175-174.9 373.8-259.8 444.1-189.5z"  horiz-adv-x="1024" />

    
    <glyph glyph-name="db_medicalHeart" unicode="&#59161;" d="M892.7 693.7c-88.7 92.6-232.7 91.4-319.9-2.8l-44.4-48c-9.4-10.1-24.9-10.1-34.3 0L447 693.8c-85.7 92.6-227.2 93.8-314.4 2.7-90.2-94.2-91.5-249.7-2.8-345.5l222.8-240.5c43.6-47.1 103.3-106.6 160.8-106.6s112.9 59.5 156.5 106.6L895.4 354c87.2 94.2 86 247.1-2.7 339.7z m-69.2-267.1L598 183.2c-17.5-18.9-37.3-40.2-56.2-56-16.4-13.7-25.6-17.6-28.6-18.6-3.3 1-13.4 4.8-31.3 19.1-20 15.9-40.3 37-57.4 55.5L201.6 423.7c-24.6 26.5-37.9 62-37.6 99.8 0.3 37.9 14.2 73.1 39.2 99.2 22.8 23.8 53.1 36.9 85.2 36.9 32.9 0 63.7-13.6 86.6-38.4l47.1-50.9c15.1-16.3 34.2-28.1 54.8-34.3v-91.3H367c-19.2 0-35-15.8-35-35s15.8-35 35-35h110v-110c0-19.2 15.8-35 35-35s35 15.8 35 35v110h110c19.2 0 35 15.8 35 35s-15.8 35-35 35H547v91.8c20 6.3 38.5 17.9 53.2 33.8l44.4 48c23.7 25.6 55.4 39.6 89.4 39.6 33.2 0 64.4-13.5 87.9-38.1 24.2-25.3 37.8-59.5 38-96.3 0.4-36.7-12.6-71.1-36.4-96.9z"  horiz-adv-x="1024" />

    
    <glyph glyph-name="db_finance" unicode="&#59162;" d="M877.4 55.9c0.2 1.8 0.2 3.5 0.2 5.3V501.3c0 29-22 52.8-49 52.8h-81.5v55.2C747.2 731.8 647 832 524.5 832h-25.1C377 832 276.8 731.8 276.8 609.3v-55.2h-81.6c-26.9 0-49-23.8-49-52.8v-440.1c0-2.2 0.1-4.5 0.4-6.6-0.2-1.4-0.2-2.8-0.2-4.1 0-63.2 163.8-114.4 365.8-114.4S878-12.7 878 50.5c-0.1 1.8-0.3 3.6-0.6 5.4zM365.8 609.3c0 35.5 14 69 39.4 94.4C430.5 729 464 743 499.5 743h25.1c35.5 0 69-14 94.4-39.4 25.4-25.4 39.4-58.9 39.4-94.4V554H365.8v55.3z m411.9-530c-13.4-6.6-37-15.8-73.6-24.1-55.4-12.6-121.8-19.2-192-19.2s-136.6 6.6-192.1 19.2c-36.9 8.3-60.6 17.6-73.9 24.2V454.1h531.6v-374.8zM595.3 291.3h17.9c14.1 0 25.5 9.8 25.5 22V355c0 7.1-3.9 13.7-10.6 17.8l-31 19.3c-4.4 2.7-9.6 4.2-15 4.2h-28.9v12.2c0 5.9-4.8 10.7-10.7 10.7H530c-5.9 0-10.7-4.8-10.7-10.7v-12.2h-14.5v12.2c0 5.9-4.8 10.7-10.7 10.7h-12.6c-5.9 0-10.7-4.8-10.7-10.7v-12.2h-28.9c-5.4 0-10.6-1.5-15-4.2l-31-19.3c-6.6-4.1-10.6-10.8-10.6-17.8v-85.9c0-7.2 4-13.9 10.8-18l31.5-19.1c4.3-2.6 9.4-4 14.7-4h28.4v-69.9c-9.6 3.2-16.4 11.2-16.4 20.6v11.5c0 12.2-11.4 22-25.5 22h-17.9c-14.1 0-25.5-9.8-25.5-22v-37.9c0-7.1 4-13.8 10.7-17.9l31.6-19.4c4.3-2.7 9.5-4.1 14.8-4.1h28.3v-15c0-5.9 4.8-10.7 10.7-10.7H494c5.9 0 10.7 4.8 10.7 10.7v15h14.5v-15c0-5.9 4.8-10.7 10.7-10.7h12.6c5.9 0 10.7 4.8 10.7 10.7v15h28.9c5.4 0 10.6 1.5 15 4.2l31 19.4c6.6 4.1 10.5 10.8 10.5 17.8v80.6c0 7.1-4 13.8-10.7 17.9l-31 19.1c-4.3 2.7-9.5 4.1-14.9 4.1h-28.9v75.2c9.6-3.2 16.4-11.2 16.4-20.6v-15.2c0.3-12.2 11.7-22.1 25.8-22.1z m-141.1 4.6v32.6c0 9.4 6.8 17.4 16.4 20.6v-73.7c-9.6 3.1-16.4 11.1-16.4 20.5z m50.5-139.2V228h14.5v-71.4h-14.5z m65.1 49.3v-27.4c0-9.4-6.8-17.4-16.4-20.6v68.5c9.6-3.1 16.4-11.1 16.4-20.5z m-65.1 67.9v76.6h14.5v-76.6h-14.5z"  horiz-adv-x="1024" />

    
    <glyph glyph-name="dbc_bgLine" unicode="&#59163;" d="M914 614H94c-16.6 0-30-13.4-30-30s13.4-30 30-30h820c16.6 0 30 13.4 30 30s-13.4 30-30 30zM914 414H94c-16.6 0-30-13.4-30-30s13.4-30 30-30h820c16.6 0 30 13.4 30 30s-13.4 30-30 30zM914 214H94c-16.6 0-30-13.4-30-30s13.4-30 30-30h820c16.6 0 30 13.4 30 30s-13.4 30-30 30zM910 36H164V782c0 27.6-22.4 50-50 50s-50-22.4-50-50v-796c0-27.6 22.4-50 50-50h796c27.6 0 50 22.4 50 50s-22.4 50-50 50z"  horiz-adv-x="1024" />

    
    <glyph glyph-name="dbc_XY" unicode="&#59164;" d="M917.1 180.6h-597v596c0 27.6-22.4 50-50 50s-50-22.4-50-50v-596H121c-27.6 0-50-22.4-50-50s22.4-50 50-50h99.1v-100c0-27.6 22.4-50 50-50s50 22.4 50 50v100H917c27.6 0 50 22.4 50 50 0.1 27.6-22.3 50-49.9 50zM120.9 732.9l-43.8 58h34l24.7-36 24.2 36h33.8l-42.9-58.3v-27.9h-30v28.2zM959 44.9l-39-42 41.1-44.2h-35.6l-23.2 24.8-22.8-24.8H844l41.1 44-39.8 42.3h35.2l22.1-24.1 21.3 24.1H959z"  horiz-adv-x="1024" />

    
    <glyph glyph-name="dbc_chartText" unicode="&#59165;" d="M142.9 755.5c-11.7 11.7-30.7 11.7-42.4 0s-11.7-30.7 0-42.4l133.7-133.7c11.7-11.7 30.7-11.7 42.4 0s11.7 30.7 0 42.4L142.9 755.5zM142.9 574.9c-11.7 11.7-30.7 11.7-42.4 0s-11.7-30.7 0-42.4l133.7-133.7c11.7-11.7 30.7-11.7 42.4 0s11.7 30.7 0 42.4L142.9 574.9zM142.9 394.3c-11.7 11.7-30.7 11.7-42.4 0s-11.7-30.7 0-42.4l133.7-133.7c11.7-11.7 30.7-11.7 42.4 0s11.7 30.7 0 42.4L142.9 394.3zM402.3 149.5c-11.7 11.7-30.7 11.7-42.4 0s-11.7-30.7 0-42.4l133.7-133.7c11.7-11.7 30.7-11.7 42.4 0s11.7 30.7 0 42.4L402.3 149.5zM588.9 149.5c-11.7 11.7-30.7 11.7-42.4 0s-11.7-30.7 0-42.4l133.7-133.7c11.7-11.7 30.7-11.7 42.4 0s11.7 30.7 0 42.4L588.9 149.5zM909.1 15.8L775.4 149.5c-11.7 11.7-30.7 11.7-42.4 0s-11.7-30.7 0-42.4l133.7-133.7c11.7-11.7 30.7-11.7 42.4 0 11.8 11.7 11.8 30.7 0 42.4zM910 186H313.1V782c0 27.6-22.4 50-50 50s-50-22.4-50-50v-596H114c-27.6 0-50-22.4-50-50s22.4-50 50-50h99.1v-100c0-27.6 22.4-50 50-50s50 22.4 50 50V86H910c27.6 0 50 22.4 50 50s-22.4 50-50 50z"  horiz-adv-x="1024" />

    
    <glyph glyph-name="dbc_tickInBlock" unicode="&#59166;" d="M341.2 672h360c33 0 60 27 60 60s-27 60-60 60h-360c-33 0-60-27-60-60s27-60 60-60zM701.2 96h-360c-33 0-60-27-60-60s27-60 60-60h360c33 0 60 27 60 60s-27 60-60 60zM869.2 624c-33 0-60-27-60-60v-360c0-33 27-60 60-60s60 27 60 60V564c0 33-27 60-60 60zM765.4 557.4c-23.3 23.3-61.5 23.3-84.9 0l-198-198-99 99c-23.3 23.3-61.5 23.3-84.9 0-23.3-23.3-23.3-61.5 0-84.9L440 232.1c23.3-23.3 61.5-23.3 84.9 0l240.4 240.4c23.5 23.4 23.5 61.6 0.1 84.9zM173.2 624c-33 0-60-27-60-60v-360c0-33 27-60 60-60s60 27 60 60V564c0 33-27 60-60 60zM173.2 732m-100 0a100 100 0 1 1 200 0 100 100 0 1 1-200 0ZM869.2 732m-100 0a100 100 0 1 1 200 0 100 100 0 1 1-200 0ZM869.2 36m-100 0a100 100 0 1 1 200 0 100 100 0 1 1-200 0ZM173.2 36m-100 0a100 100 0 1 1 200 0 100 100 0 1 1-200 0Z"  horiz-adv-x="1024" />

    
    <glyph glyph-name="dbc_tooltip" unicode="&#59167;" d="M860 584v-400H164V584h696m40 100H124c-33.1 0-60-26.9-60-60v-480c0-33.1 26.9-60 60-60h776c33.1 0 60 26.9 60 60V624c0 33.1-26.9 60-60 60zM566.3 509.3v-7.1c0-14.6-11.8-26.5-26.5-26.5H242.7c-14.6 0-26.5 11.8-26.5 26.5v7.1c0 14.6 11.8 26.5 26.5 26.5h297.1c14.7-0.1 26.5-11.9 26.5-26.5zM616.3 398.5v-10.7c0-13.6-11-24.7-24.7-24.7H240.9c-13.6 0-24.7 11-24.7 24.7v10.7c0 13.6 11 24.7 24.7 24.7h350.7c13.7 0 24.7-11 24.7-24.7zM807.7 283.9c0-16.6-13.4-30-30-30H246.3c-16.6 0-30 13.4-30 30s13.4 30 30 30h531.4c16.6 0 30-13.5 30-30z"  horiz-adv-x="1024" />

    
    <glyph glyph-name="db_menuBurger" unicode="&#59168;" d="M870 620.4H154c-49.5 0-90 40.5-90 90s40.5 90 90 90h716c49.5 0 90-40.5 90-90s-40.5-90-90-90zM870 294H154c-49.5 0-90 40.5-90 90s40.5 90 90 90h716c49.5 0 90-40.5 90-90s-40.5-90-90-90zM870-32.4H154c-49.5 0-90 40.5-90 90s40.5 90 90 90h716c49.5 0 90-40.5 90-90s-40.5-90-90-90z"  horiz-adv-x="1024" />

    
    <glyph glyph-name="db_menuDot" unicode="&#59169;" d="M512 712m-100 0a100 100 0 1 1 200 0 100 100 0 1 1-200 0ZM512 384m-100 0a100 100 0 1 1 200 0 100 100 0 1 1-200 0ZM512 56m-100 0a100 100 0 1 1 200 0 100 100 0 1 1-200 0Z"  horiz-adv-x="1024" />

    
    <glyph glyph-name="db_up" unicode="&#59170;" d="M970 85.5c0 77.3-62.7 140-140 140-51.8 0-97.1-28.2-121.3-70H411.8v447l78.4-78.4c27.2-27.2 71.8-27.2 99 0 27.2 27.2 27.2 71.8 0 99L399.8 812.5c-12.2 17.5-32.4 29-55.2 29H339c-22.8 0-43-11.5-55.2-29L94.4 623.1c-27.2-27.2-27.2-71.8 0-99 27.2-27.2 71.8-27.2 99 0l78.4 78.4v-519.8c0-37 30.2-67.2 67.2-67.2H708.7c24.2-41.8 69.4-70 121.3-70 77.3 0 140 62.7 140 140z"  horiz-adv-x="1024" />

    
    <glyph glyph-name="db_YOYChain" unicode="&#59171;" d="M932 457c0 207.1-167.9 375-375 375-165.7 0-306.3-107.5-355.9-256.6C133.7 507.6 92 414.2 92 311c0-207.1 167.9-375 375-375 165.7 0 306.3 107.5 355.9 256.6C890.3 260.4 932 353.8 932 457z m-90-146z m-0.1-6.9v0z m-0.2-8.2v0z m-0.4-7.3c0-0.3 0-0.7-0.1-1 0.1 0.3 0.1 0.7 0.1 1z m-0.5-7.8c0-0.4-0.1-0.8-0.1-1.2 0 0.4 0.1 0.8 0.1 1.2z m-1.5-15.1c0-0.3-0.1-0.7-0.1-1 0 0.4 0 0.7 0.1 1z m-1-7.9c0-0.1 0-0.3-0.1-0.4 0 0.1 0 0.3 0.1 0.4z m-1.2-7.3c0-0.1 0-0.3-0.1-0.4 0.1 0.1 0.1 0.3 0.1 0.4z m-1.2-7.4c0-0.2-0.1-0.4-0.1-0.6 0 0.2 0 0.4 0.1 0.6z m-3-14.7c0-0.1-0.1-0.2-0.1-0.4 0 0.2 0 0.3 0.1 0.4z m0 165.2v0z m3.6-18.3c0-0.2 0.1-0.4 0.1-0.6 0 0.2-0.1 0.4-0.1 0.6z m2-12.7c0-0.2 0-0.3 0.1-0.5-0.1 0.2-0.1 0.3-0.1 0.5z m0.7-5.9c0-0.4 0.1-0.7 0.1-1.1 0 0.4 0 0.7-0.1 1.1z m0.8-6.8v0z m0.6-6.2c0-0.4 0.1-0.8 0.1-1.1-0.1 0.4-0.1 0.8-0.1 1.1z m0.4-5.9c0-0.5 0.1-1 0.1-1.5 0 0.5 0 1-0.1 1.5z m0.5-7v0z m0.3-6.2c0-0.5 0-1.1 0.1-1.6-0.1 0.5-0.1 1.1-0.1 1.6z m0.1-6v0zM450 710.4c33.8 14.3 69.8 21.6 107 21.6s73.2-7.3 107-21.6c32.7-13.8 62.2-33.7 87.4-59 25.3-25.3 45.1-54.7 59-87.4 14.3-33.8 21.6-69.8 21.6-107 0-15.3-1.3-30.4-3.7-45.2C784.3 569.9 639.2 686 467 686c-24.7 0-48.9-2.4-72.3-7 17.1 12.6 35.6 23.1 55.3 31.4zM380.8 676h-0.1 0.1z m-13.7-3.5c-0.1 0-0.1 0-0.2-0.1 0 0.1 0.1 0.1 0.2 0.1z m-13.5-4c-0.1 0-0.2-0.1-0.3-0.1 0.1 0.1 0.2 0.1 0.3 0.1z m-13.4-4.5c-0.1 0-0.2-0.1-0.3-0.1 0.2 0.1 0.3 0.1 0.3 0.1z m-13.1-5c-0.1 0-0.2-0.1-0.2-0.1 0.1 0.1 0.2 0.1 0.2 0.1z m-12.8-5.4c-0.1 0-0.1-0.1-0.2-0.1 0 0 0.1 0.1 0.2 0.1z m-12.7-6s-0.1 0 0 0c-0.1 0 0 0 0 0z m-95.5-67.3l-0.1-0.1s0 0.1 0.1 0.1z m77.1 57.6c-0.1 0-0.1 0 0 0-0.1 0-0.1 0 0 0z m-11.9-7c-0.1 0-0.1-0.1-0.2-0.1 0 0 0.1 0.1 0.2 0.1z m-11.6-7.4c-0.1-0.1-0.2-0.1-0.3-0.2 0.1 0.1 0.2 0.2 0.3 0.2z m-11.4-7.8c-0.1-0.1-0.2-0.2-0.3-0.2 0.1 0 0.2 0.1 0.3 0.2z m-11-8.3l-0.3-0.3c0.1 0.2 0.2 0.3 0.3 0.3z m-10.7-8.6c-0.1-0.1-0.2-0.2-0.3-0.2 0.1 0 0.2 0.1 0.3 0.2z m-10.4-9l-0.2-0.2 0.2 0.2zM192 312.7c0.2 36.6 7.5 72 21.5 105.3 13.8 32.7 33.7 62.2 59 87.4 25.3 25.3 54.7 45.1 87.4 59 33.3 14.1 68.7 21.3 105.3 21.5L192 312.7z m25-116.4L581.7 561c14.4-6.6 28.2-14.4 41.2-23.4L240.4 155.1c-9 13-16.8 26.7-23.4 41.2zM352.3 61c-14.4 6.6-28.2 14.4-41.2 23.4l382.5 382.5c9-13 16.8-26.7 23.4-41.2L352.3 61z m368.1 143c-13.8-32.7-33.7-62.2-59-87.4-25.3-25.3-54.7-45.1-87.4-59-33.3-14.1-68.7-21.3-105.3-21.5L742 309.3c-0.2-36.6-7.5-72-21.6-105.3z m106.9 2.7z"  horiz-adv-x="1024" />

    
    <glyph glyph-name="dbc_table" unicode="&#59172;" d="M327 570.5c0 22.1 17.9 40 40 40h290c22.1 0 40-17.9 40-40s-17.9-40-40-40H367c-22.1 0-40 18-40 40zM894 744H130c-36.5 0-66-29.5-66-66v-588c0-36.5 29.5-66 66-66h764c36.5 0 66 29.5 66 66V678c0 36.5-29.5 66-66 66zM144 423.6h112.4V293H144V423.6z m172.4 0H482V293H316.4V423.6zM482 233v-129H316.4V233H482z m60 0h165.6v-129H542V233z m0 60V423.6h165.6V293H542z m225.6 130.6H880V293H767.6V423.6zM880 664v-180.4H144V664h736zM144 233h112.4v-129H144V233z m623.6-129V233H880v-129H767.6z"  horiz-adv-x="1024" />

    
    <glyph glyph-name="db_userLine" unicode="&#59173;" d="M512.5 722c32.1 0 62.3-12.5 85-35.2 22.7-22.7 35.2-52.9 35.2-85s-12.5-62.3-35.2-85c-22.7-22.7-52.9-35.2-85-35.2s-62.3 12.5-85 35.2c-22.7 22.7-35.2 52.9-35.2 85s12.5 62.3 35.2 85c22.7 22.7 52.9 35.2 85 35.2m0 110c-127.1 0-230.2-103.1-230.2-230.2s103.1-230.2 230.2-230.2 230.2 103.1 230.2 230.2S639.6 832 512.5 832zM512.5 231.6c106.4 0 193.3-56.9 235.7-90.8 32.9-26.4 55.7-51.7 70.3-70.5-15.1-3-33.2-6-54.9-9-73.1-10-159.9-15.3-251.1-15.3-91.7 0-178.4 5.1-250.8 14.8-22 2.9-40.4 6-55.6 8.9 23.8 30.9 51.2 55.4 70.7 71.1 42.4 33.9 129.3 90.8 235.7 90.8m0 110c-247.4 0-448-225.6-448-324 0-45.5 200.6-81.6 448-81.6s448 37.9 448 81.6c0 98.4-200.6 324-448 324z"  horiz-adv-x="1024" />

    
    <glyph glyph-name="db_fileLine" unicode="&#59174;" d="M667 601.8H357c-24.9 0-45-20.1-45-45s20.1-45 45-45h310c24.9 0 45 20.1 45 45s-20.1 45-45 45zM568.2 456.8H357c-24.9 0-45-20.1-45-45s20.1-45 45-45h211.2c24.9 0 45 20.1 45 45 0 24.8-20.1 45-45 45zM467 311.8H357c-24.9 0-45-20.1-45-45s20.1-45 45-45h110c24.9 0 45 20.1 45 45 0 24.8-20.1 45-45 45zM804 832H220c-33.1 0-60-26.9-60-60v-776c0-33.1 26.9-60 60-60h421.6c8 0 15.6 3.2 21.2 8.8l192.4 192.4c5.6 5.6 8.8 13.3 8.8 21.2V772c0 33.1-26.9 60-60 60zM260 36V732h504v-544.6l-0.6-0.6h-89.2c-33.7 0-61-27.3-61-61v-89.2l-0.6-0.6H260z"  horiz-adv-x="1024" />

    
    <glyph glyph-name="dbc_featureList" unicode="&#59175;" d="M870 602H290c-49.5 0-90 40.5-90 90s40.5 90 90 90h580c49.5 0 90-40.5 90-90s-40.5-90-90-90zM870 294H290c-49.5 0-90 40.5-90 90s40.5 90 90 90h580c49.5 0 90-40.5 90-90s-40.5-90-90-90zM870-14H290c-49.5 0-90 40.5-90 90s40.5 90 90 90h580c49.5 0 90-40.5 90-90s-40.5-90-90-90zM119 602c-30.3 0-55 24.7-55 55v70c0 30.2 24.7 55 55 55 30.2 0 55-24.7 55-55v-70c0-30.3-24.7-55-55-55zM119 294c-30.3 0-55 24.8-55 55v70c0 30.2 24.7 55 55 55 30.2 0 55-24.7 55-55v-70c0-30.2-24.7-55-55-55zM119-14c-30.3 0-55 24.8-55 55v70c0 30.2 24.7 55 55 55 30.2 0 55-24.7 55-55v-70c0-30.2-24.7-55-55-55z"  horiz-adv-x="1024" />

    
    <glyph glyph-name="dbc_model" unicode="&#59176;" d="M210.2 15c-27.6 0-50 22.4-50 50v11c0 59.2-0.1 132.9 10.9 209.4 13.2 92.2 39.5 169.1 80.3 235.1 51.1 82.7 125.4 147 220.9 191 52.5 24.2 112.5 42.7 178.3 55.1 69.1 13 146.8 19.6 230.9 19.6 27.6 0 50-22.4 50-50s-22.4-50-50-50c-149.5 0-273-22-367.3-65.5-40.7-18.8-76.7-41.9-107.1-68.8-27.5-24.3-51.2-52.6-70.6-83.9-76.4-123.6-76.3-278.6-76.2-391.9V65c-0.1-27.6-22.5-50-50.1-50zM905 120H335.9l580.8 581c19.5 19.5 19.5 51.2 0 70.7s-51.2 19.5-70.7 0L254 179.6V777c0 30.2-24.8 55-55 55s-55-24.8-55-55v-657h-25c-30.2 0-55-24.8-55-55s24.8-55 55-55h25v-19c0-30.2 24.8-55 55-55s55 24.8 55 55v19h651c30.2 0 55 24.8 55 55 0 30.3-24.8 55-55 55z"  horiz-adv-x="1024" />

    
    <glyph glyph-name="db_search" unicode="&#59177;" d="M513.7 509.7c33.4 0 64.8-13 88.4-36.6 23.6-23.6 36.6-55 36.6-88.4 0-33.4-13-64.8-36.6-88.4s-55-36.6-88.4-36.6-64.8 13-88.4 36.6c-23.6 23.6-36.6 55-36.6 88.4 0 33.4 13 64.8 36.6 88.4 23.6 23.6 55 36.6 88.4 36.6m0 100c-57.6 0-115.2-22-159.1-65.9-87.9-87.9-87.9-230.3 0-318.2 43.9-43.9 101.5-65.9 159.1-65.9s115.2 22 159.1 65.9c87.9 87.9 87.9 230.3 0 318.2-44 43.9-101.6 65.9-159.1 65.9zM708.4 240.5c-12.8 0-25.6-4.9-35.4-14.6-19.4-19.4-19.4-51.3 0-70.7l155.3-155.3c9.7-9.7 22.5-14.6 35.4-14.6s25.6 4.9 35.4 14.6c19.4 19.4 19.4 51.3 0 70.7L743.8 225.9c-9.7 9.7-22.6 14.6-35.4 14.6zM374.9 35.3H164.3V245.9c0 27.3-22.1 49.4-49.4 49.4h-1.3c-27.3 0-49.4-22.1-49.4-49.4v-261.3c0-27.3 22.1-49.4 49.4-49.4h261.3c27.3 0 49.4 22.1 49.4 49.4v1.3c0 27.3-22.1 49.4-49.4 49.4zM910.3 832.7H649c-27.3 0-49.4-22.1-49.4-49.4v-1.3c0-27.3 22.1-49.4 49.4-49.4h210.6V522c0-27.3 22.1-49.4 49.4-49.4h1.3c27.3 0 49.4 22.1 49.4 49.4V783.3c0 27.3-22.1 49.4-49.4 49.4z"  horiz-adv-x="1024" />

    
    <glyph glyph-name="db_shopBag1" unicode="&#59178;" d="M832 832H192c-33 0-60-27-60-60v-776c0-33 27-60 60-60h640c33 0 60 27 60 60V772c0 33-27 60-60 60z m-80-187c0-0.58-0.02-1.15-0.04-1.72C750.12 539.6 643.4 456 512 456s-238.12 83.6-239.96 187.28c-0.02 0.57-0.04 1.14-0.04 1.72 0 0.13 0.01 0.26 0.01 0.39 0 0.2-0.01 0.41-0.01 0.61h0.03c0.53 21.63 18.22 39 39.97 39s39.44-17.37 39.97-39h0.03c0-34.8 25.03-59.81 39.95-71.63C422.75 549.99 466.51 536 512 536s89.25 13.99 120.05 38.37C646.97 586.19 672 611.2 672 646h0.03c0.53 21.63 18.22 39 39.97 39s39.44-17.37 39.97-39h0.03c0-0.21-0.01-0.41-0.01-0.61 0-0.13 0.01-0.26 0.01-0.39z"  horiz-adv-x="1024" />

    
    <glyph glyph-name="db_pie" unicode="&#59179;" d="M841.86 346H514c-22.09 0-40 17.91-40 40V713.86c0 23.7-20.51 42.31-44.08 39.8C224.21 731.67 64 557.55 64 346c0-226.43 183.57-410 410-410 211.55 0 385.67 160.21 407.66 365.92 2.52 23.57-16.09 44.08-39.8 44.08zM959.82 453.23C940.41 653.28 781.28 812.41 581.23 831.82c-22.1 2.15-41.23-15.29-41.23-37.5v-344.66c0-20.8 16.86-37.66 37.66-37.66h344.66c22.21 0 39.65 19.13 37.5 41.23z"  horiz-adv-x="1024" />

    
    <glyph glyph-name="db_tag" unicode="&#59180;" d="M947.69 336.17L467.76 816.11a41.373 41.373 0 0 1-3.37 3.02c-8.44 8.9-20.83 14.27-35.43 12.47L111.7 820.81c-19.13-2.36-34.2-17.43-36.56-36.56L64.35 466.98c-1.86-15.09 3.94-27.83 13.39-36.28 0.7-0.82 1.43-1.63 2.21-2.41l479.93-479.93c16.41-16.41 43.02-16.41 59.43 0l328.37 328.37c16.42 16.42 16.42 43.03 0.01 59.44zM273.52 562.48c-33.14 0-60 26.86-60 60s26.86 60 60 60 60-26.86 60-60-26.86-60-60-60z"  horiz-adv-x="1024" />

    
    <glyph glyph-name="db_groupPPL" unicode="&#59181;" d="M512 541.03m-165.97 0a165.97 165.97 0 1 1 331.94 0 165.97 165.97 0 1 1-331.94 0ZM512 353.43c-178.37 0-323-162.65-323-233.6 0-32.8 144.63-58.83 323-58.83s323 27.33 323 58.83c0 70.95-144.63 233.6-323 233.6zM698.73 432.63a217.72 217.72 0 0 0-48-56.98c54.18-21.92 96.13-52.36 121.98-74.27 31.75-26.9 59.02-57.31 78.86-87.93 4.9-7.56 9.26-14.98 13.09-22.27 58.46 9.55 95.34 23.35 95.34 38.22 0 59.18-115.2 191.4-261.27 203.23zM727.97 541.03c0-30.14-6.23-58.84-17.43-84.93 64.3 14.85 112.26 72.49 112.26 141.29 0 80.06-64.94 145.01-145.01 145.01-21.47 0-41.84-4.67-60.18-13.05 65.81-37.05 110.36-107.58 110.36-188.32zM251.29 301.38c25.85 21.91 67.8 52.34 121.98 74.27a217.736 217.736 0 0 0-48.02 57.01C179 421.03 63.6 288.63 63.6 229.4c0-15.5 36.95-29.26 95.52-38.64 3.88 7.42 8.31 14.98 13.31 22.69 19.84 30.62 47.11 61.03 78.86 87.93zM313.5 456.01c-11.23 26.11-17.47 54.85-17.47 85.02 0 80.67 44.46 151.14 110.17 188.22-18.39 8.44-38.84 13.15-60.4 13.15-80.06 0-145.01-64.94-145.01-145.01 0-68.95 48.19-126.69 112.71-141.38z"  horiz-adv-x="1024" />

    
    <glyph glyph-name="db__foloder" unicode="&#59182;" d="M860 518.93v-440H164v440h696m40 100H124c-33.14 0-60-26.86-60-60v-520c0-33.14 26.86-60 60-60h776c33.14 0 60 26.86 60 60v520c0 33.14-26.86 60-60 60zM654.37 689.07c4.11 0 7.57-0.47 10.26-1.06l33.02-69.09H164v70.13c0.44 0.01 0.88 0.02 1.33 0.02h489.04m0 100H165.33C109.37 789.07 64 758.83 64 721.53v-202.61h658.67c55.96 0 101.33 30.24 101.33 67.54l-78.99 165.28c-17.17 22.88-52.26 37.33-90.64 37.33z"  horiz-adv-x="1024" />

    
    <glyph glyph-name="db__database" unicode="&#59183;" d="M900 792H124c-33.14 0-60-26.86-60-60v-100c0-33.14 26.86-60 60-60h776c33.14 0 60 26.86 60 60V732c0 33.14-26.86 60-60 60zM214 632c-27.61 0-50 22.39-50 50s22.39 50 50 50 50-22.39 50-50-22.39-50-50-50zM900 494H124c-33.14 0-60-26.86-60-60v-100c0-33.14 26.86-60 60-60h776c33.14 0 60 26.86 60 60V434c0 33.14-26.86 60-60 60zM214 334c-27.61 0-50 22.39-50 50s22.39 50 50 50 50-22.39 50-50-22.39-50-50-50zM900 196H124c-33.14 0-60-26.86-60-60v-100c0-33.14 26.86-60 60-60h776c33.14 0 60 26.86 60 60V136c0 33.14-26.86 60-60 60zM214 36c-27.61 0-50 22.39-50 50s22.39 50 50 50 50-22.39 50-50-22.39-50-50-50z"  horiz-adv-x="1024" />

    
    <glyph glyph-name="db10_calculate" unicode="&#59184;" d="M919 713.7L182.3-23c-21.4-21.4-56-21.4-77.3 0-21.4 21.4-21.4 56 0 77.3L841.7 791c21.4 21.4 56 21.4 77.3 0 21.3-21.4 21.3-56 0-77.3zM449 667H339V777c0 30.4-24.6 55-55 55s-55-24.6-55-55v-110H119c-30.4 0-55-24.6-55-55s24.6-55 55-55h110v-110c0-30.4 24.6-55 55-55s55 24.6 55 55V557h110c30.4 0 55 24.6 55 55s-24.6 55-55 55zM905 101H575c-30.4 0-55 24.6-55 55s24.6 55 55 55h330c30.4 0 55-24.6 55-55s-24.6-55-55-55z"  horiz-adv-x="1024" />

    
    <glyph glyph-name="db10_setting" unicode="&#59185;" d="M885.6 308.4l-36.2 15.7c6.5 36.6 6.9 73.3 1.7 109.1l36.7 14.5c40.5 16 60.5 62.2 44.5 102.7s-62.2 60.5-102.7 44.5L793 580.2c-20.6 29.6-46.1 56.2-75.9 78.4l15.7 36.2c17.3 39.9-1.2 86.7-41.2 104-39.9 17.3-86.7-1.2-104-41.2l-15.7-36.2c-36.6 6.5-73.3 6.9-109.1 1.7l-14.5 36.7c-16 40.5-62.2 60.5-102.7 44.5s-60.5-62.2-44.5-102.7l14.5-36.7c-29.6-20.6-56.2-46.1-78.4-75.9L201 604.7c-39.9 17.3-86.7-1.2-104-41.2-17.3-39.9 1.2-86.7 41.2-104l36.2-15.7c-6.5-36.6-6.9-73.3-1.7-109.1L136 320.2c-40.5-16-60.5-62.2-44.5-102.7S153.7 157 194.2 173l36.7 14.5c20.6-29.6 46.1-56.2 75.9-78.4l-15.7-36.2c-17.3-39.9 1.2-86.7 41.2-104 39.9-17.3 86.7 1.2 104 41.2l15.7 36.2c36.6-6.5 73.3-6.9 109.1-1.7l14.5-36.7c16-40.5 62.2-60.5 102.7-44.5s60.5 62.2 44.5 102.7L708.2 103c29.6 20.6 56.2 46.1 78.4 75.9l36.2-15.7c39.9-17.3 86.7 1.2 104 41.2 17.3 39.9-1.2 86.7-41.2 104zM434.2 204.3c-99.1 42.9-144.8 158.4-101.9 257.5 42.9 99.1 158.4 144.8 257.5 101.9 99.1-42.9 144.8-158.4 101.9-257.5-42.9-99.1-158.4-144.8-257.5-101.9z"  horiz-adv-x="1024" />

    
    <glyph glyph-name="db10_noticeSuccess" unicode="&#59186;" d="M512 695c44.3 0 87.3-8.7 127.6-25.7 39-16.5 74.1-40.2 104.3-70.3 30.2-30.2 53.8-65.3 70.3-104.3C831.3 454.3 840 411.4 840 367s-8.7-87.3-25.7-127.6c-16.5-39-40.2-74.1-70.3-104.3-30.2-30.2-65.3-53.8-104.3-70.3C599.3 47.7 556.3 39 512 39s-87.3 8.7-127.6 25.7c-39 16.5-74.1 40.2-104.3 70.3-30.2 30.2-53.8 65.3-70.3 104.3C192.7 279.8 184 322.7 184 367s8.7 87.3 25.7 127.6c16.5 39 40.2 74.1 70.3 104.3 30.2 30.2 65.3 53.8 104.3 70.3C424.7 686.4 467.7 695 512 695m0 120C264.6 815 64 614.5 64 367c0-247.4 200.6-448 448-448s448 200.6 448 448c0 247.5-200.6 448-448 448zM776.1 510.8c-19.4 19.4-51.3 19.4-70.7 0L472 277.5 351.8 397.7c-19.4 19.4-51.3 19.4-70.7 0-19.4-19.4-19.4-51.3 0-70.7l155.6-155.6c19.4-19.4 51.3-19.4 70.7 0l268.7 268.7c19.4 19.4 19.4 51.3 0 70.7z"  horiz-adv-x="1024" />

    
    <glyph glyph-name="db10_noticeError" unicode="&#59187;" d="M512 712c44.3 0 87.3-8.7 127.6-25.7 39-16.5 74.1-40.2 104.3-70.3 30.2-30.2 53.8-65.3 70.3-104.3C831.3 471.3 840 428.3 840 384s-8.7-87.3-25.7-127.6c-16.5-39-40.2-74.1-70.3-104.3-30.2-30.2-65.3-53.8-104.3-70.3C599.3 64.7 556.3 56 512 56s-87.3 8.7-127.6 25.7c-39 16.5-74.1 40.2-104.3 70.3s-53.8 65.3-70.3 104.3C192.7 296.7 184 339.7 184 384s8.7 87.3 25.7 127.6c16.5 39 40.2 74.1 70.3 104.3s65.3 53.8 104.3 70.3C424.7 703.3 467.7 712 512 712m0 120C264.6 832 64 631.4 64 384s200.6-448 448-448 448 200.6 448 448S759.4 832 512 832zM577.2 367l106.1 106.1c19.4 19.4 19.4 51.3 0 70.7-19.4 19.4-51.3 19.4-70.7 0l-106.1-106-106 106c-19.4 19.4-51.3 19.4-70.7 0-19.4-19.4-19.4-51.3 0-70.7l106-106.1-106.1-106c-19.4-19.4-19.4-51.3 0-70.7 19.4-19.4 51.3-19.4 70.7 0l106.1 106.1 106.1-106.1c19.4-19.4 51.3-19.4 70.7 0 19.4 19.4 19.4 51.3 0 70.7L577.2 367z"  horiz-adv-x="1024" />

    
    <glyph glyph-name="db10_useropen" unicode="&#59188;" d="M512.5 722c32.1 0 62.3-12.5 85-35.2 22.7-22.7 35.2-52.9 35.2-85s-12.5-62.3-35.2-85c-22.7-22.7-52.9-35.2-85-35.2s-62.3 12.5-85 35.2c-22.7 22.7-35.2 52.9-35.2 85s12.5 62.3 35.2 85c22.7 22.7 52.9 35.2 85 35.2m0 110c-127.1 0-230.2-103.1-230.2-230.2s103.1-230.2 230.2-230.2 230.2 103.1 230.2 230.2S639.6 832 512.5 832zM908.6-64c-27.8 0-50.6 20.3-51.4 45.8-1.9 65.2-37.4 126.9-100.1 173.6C691.7 204.1 604.6 231 512 231s-179.7-26.8-245.1-75.6c-62.7-46.7-98.2-108.3-100.1-173.6-0.7-25.5-23.6-45.8-51.4-45.8H114c-28.4 0.7-50.8 22.3-50.1 48.2 1.4 47.3 14.7 93.1 39.5 135.9 23.7 40.7 56.8 77.1 98.4 108.1 83.9 62.5 194 96.8 310.2 96.8s226.3-34.4 310.1-96.7c41.6-31 74.7-67.4 98.4-108.1 24.9-42.8 38.2-88.6 39.5-135.9 0.7-26-21.7-47.6-50.1-48.2-0.4-0.1-0.9-0.1-1.3-0.1z"  horiz-adv-x="1024" />

    
    <glyph glyph-name="db10_noticeAlert" unicode="&#59189;" d="M512 509.3c-27.5 0-50-22.5-50-50v-180c0-27.5 22.5-50 50-50s50 22.5 50 50v180c0 27.5-22.5 50-50 50zM512 207.4c-27.6 0-50-22.4-50-50s22.4-50 50-50 50 22.4 50 50-22.4 50-50 50zM512 633.5L828.3 91H195.7L512 633.5m0 138.6c-20.4 0-40.8-10.1-52.5-30.2L75 82.4c-23.6-40.5 5.6-91.4 52.5-91.4h769c46.9 0 76.2 50.9 52.5 91.4L564.5 741.9c-11.7 20.1-32.1 30.2-52.5 30.2z"  horiz-adv-x="1024" />

    
    <glyph glyph-name="db10_chart" unicode="&#59190;" d="M905-64H119c-30.2 0-55 24.8-55 55s24.7 55 55 55h786c30.2 0 55-24.8 55-55s-24.8-55-55-55zM244 112h-60c-33 0-60 27-60 60V772c0 33 27 60 60 60h60c33 0 60-27 60-60v-600c0-33-27-60-60-60zM542 112h-60c-33 0-60 27-60 60V552c0 33 27 60 60 60h60c33 0 60-27 60-60v-380c0-33-27-60-60-60zM840 112h-58c-33 0-60 27-60 60V302c0 33 27 60 60 60h58c33 0 60-27 60-60v-130c0-33-27-60-60-60z"  horiz-adv-x="1024" />

    
    <glyph glyph-name="db10_chop" unicode="&#59191;" d="M889.6 37.4H135c-27.5 0-50-22.5-50-50s22.5-50 50-50h754.6c27.5 0 50 22.5 50 50s-22.5 50-50 50zM692.3 185.4h-360c-27.6 0-50-22.4-50-50s22.4-50 50-50h360c27.6 0 50 22.4 50 50s-22.4 50-50 50zM891 85.4c-27.6 0-50 22.4-50 50V307c0 0.3-0.5 0.8-0.8 0.8H660.6c-22.1 0-41.5 14.5-47.9 35.6-3.3 11-19.9 67-23.5 95.5l-0.2 1.5c-2 15.7-6.7 52.3-6.7 89.2 0 12.4 4.6 24.3 12.9 33.5 16.7 18.5 25.9 42.3 25.9 67.2 0 25.6-11.5 50.3-32.3 69.6-21 19.5-48.9 30.7-76.5 30.7s-55.5-11.2-76.5-30.7c-20.8-19.3-32.3-44-32.3-69.6 0-24.3 8.8-47.7 24.8-66 8-9.1 12.4-20.8 12.4-32.9 0-30.8-3.6-67.1-6.6-92.2-1.6-13.1-5.8-32.8-13-60.1-9.7-37.2-11.2-40.1-13-43.7-8.5-16.9-25.8-27.6-44.7-27.6H183.7c-0.3 0-0.8-0.5-0.8-0.8v-171.6c0-27.6-22.4-50-50-50s-50 22.4-50 50V307c0 55.6 45.2 100.8 100.8 100.8h141.4c4.5 17.6 8.5 34.7 9.6 43.4 2.8 23.7 4.7 45.6 5.5 63.6-23.8 33.7-36.7 74-36.7 115.6 0 27.5 6 54.3 17.8 79.7 11.1 23.7 26.7 45 46.4 63.3 39.3 36.5 92 57.4 144.5 57.4s105.2-20.9 144.5-57.4c19.7-18.3 35.4-39.6 46.4-63.3 11.8-25.3 17.8-52.1 17.8-79.7 0-42.6-13.5-83.8-38.4-117.9 1-24.5 4-47.3 5.5-59.4l0.2-1.5c1.1-8.7 5.3-26 10-43.7h141.9c55.6 0 100.8-45.2 100.8-100.8v-171.6c0.1-27.7-22.3-50.1-49.9-50.1z"  horiz-adv-x="1024" />

    
    <glyph glyph-name="db10_sortArrow" unicode="&#59192;" d="M701.2 534.2L538 817c-11.5 20-40.4 20-52 0L322.8 534.2c-11.5-20 2.9-45 26-45h104.8c-1-4.3-1.5-8.7-1.5-13.2v-480c0-33 27-60 60-60s60 27 60 60V476c0 4.5-0.5 9-1.5 13.2h104.8c22.9 0 37.4 25 25.8 45z"  horiz-adv-x="1024" />

    
    <glyph glyph-name="db10_logoAi" unicode="&#59193;" d="M432.7 151.5L501 33.1h22.7L592 151.4l-79.6 138zM512.3 568.5l44.9 77.8 5.7 9.9 27.2 47c-42.7 42.1-112.9 42.3-155.8 0.4-0.3-0.3-0.7-0.6-1-1-6.8-6.8-12.9-14.6-18-23.6l-63.8-110.4-0.2-0.3-79.7-138-0.7-1.2L191 290.8v-0.1l-52-90.2c-14.1-24.5-17.8-51-13.3-75.6 4.7-25.4 18.2-48.8 37.8-65.6 11.9-10.1 26.1-17.9 41.9-22.3l66 114.3v0.1l79.9 138.3 0.7 1.2 79.7 138 0.2 0.3L511.5 567l0.8 1.5zM889.9 191l-57 98.7-0.8 1.3-79.6 137.8-0.2 0.3-79.7 138-0.7 1.2-64.7 112-79.8-138.2 64.7-112 0.7-1.2 79.6-138 0.2-0.3 79.6-137.8 0.8-1.3 66-114.2c14.9 4.2 28.3 11.4 39.7 20.7 21.2 17.3 35.5 42.1 39.9 69 3.4 20.8 1 42.9-8.7 64z"  horiz-adv-x="1024" />

    
    <glyph glyph-name="db10_aiNull" unicode="&#59194;" d="M896.5 172.4H127.4c-15.1-58.1 19.8-118.9 77.5-135.1 0.4-0.1 0.9-0.2 1.3-0.4 9.3-2.5 19.1-3.8 29.4-3.8h552.8c28.3 0 53.1 10.1 72.1 26.3 19.7 16.8 33.2 40.1 37.8 65.6 2.8 15.3 2.4 31.5-1.8 47.4zM362.9 310.8l0.7 1.2 79.7 138 0.2 0.4L523 588.1l0.8 1.3 65.9 114.2c-11.1 10.8-24 18.8-37.8 24-25.6 9.7-54.2 9.7-79.7 0-19.7-7.4-37.6-20.6-51-39.5l-57-98.7-0.8-1.3-79.6-137.8-0.2-0.3L204 312l-0.7-1.2-64.7-112h159.6l64.7 112z"  horiz-adv-x="1024" />

    
    <glyph glyph-name="db10_flag" unicode="&#59195;" d="M261.1 836.3c-15.5 0-29.9-1.8-40.7-6.4h-0.1c-20.6-6.2-35.6-25.3-35.6-47.9v-796c0-27.6 22.4-50 50-50s50 22.4 50 50V328c16.3 2.9 32.6 4.2 48.9 4.2 121.6 0 243.3-72.1 365-81.8 9.6-0.7 18.7-1 27.3-1 69.6 0 106.4 21.5 125.9 39.6 21.9 22.9 21.9 41.5 21.9 80.4V695.9c0 33-18.2 48.4-43.8 48.4-7.4 0-15.3-1.3-23.6-3.8-23.1-6.5-46.2-9.2-69.4-9.2-138.4 0-337.1 76.5-386.1 91-22.4 6.7-58.4 14-89.7 14z m24-407.1l0.6 115.9 1 181.7c11.1 2.5 22.7 3.7 35 3.7 51.9 0 111.2-21.2 174-43.7 35.9-12.9 73.1-26.2 111.6-36.5 47.4-12.7 89.8-18.9 129.8-18.9 12.4 0 24.7 0.6 36.9 1.8V356.6c-9.9-3.9-25.7-7.1-47.8-7.1-6.3 0-12.9 0.2-19.7 0.7-44.9 3.6-94.4 19.3-146.7 36-71.4 22.7-145.2 46.1-225.9 46.1-16.7 0-33-1.1-48.8-3.1z"  horiz-adv-x="1024" />

    
    <glyph glyph-name="dbc10_orderRb" unicode="&#59196;" d="M802 781h-80c-0.1 27.4-22.5 49.8-50 49.8H352c-27.4 0-49.9-22.4-50-49.8h-80c-33 0-60-27-60-60v-723.9c0-33 27-60 60-60h580c33 0 60 27 60 60V721c0 33-27 60-60 60z m-40.4-738H262.4V675.2h54.7c9-8.8 21.4-14.3 34.9-14.3h320c13.6 0 25.9 5.5 34.9 14.3h54.7V43zM662 463.4H362c-22 0-40 18-40 40s18 40 40 40h300c22 0 40-18 40-40s-18-40-40-40zM632 297.5H392c-22 0-40 18-40 40s18 40 40 40h240c22 0 40-18 40-40s-18-40-40-40zM662 131.6H362c-22 0-40 18-40 40s18 40 40 40h300c22 0 40-18 40-40s-18-40-40-40z"  horiz-adv-x="1024" />

    
    <glyph glyph-name="dbc10_tickInBlockRb" unicode="&#59197;" d="M341.2 672h360c33 0 60 27 60 60s-27 60-60 60h-360c-33 0-60-27-60-60s27-60 60-60zM701.2 96h-360c-33 0-60-27-60-60s27-60 60-60h360c33 0 60 27 60 60s-27 60-60 60zM869.2 624c-33 0-60-27-60-60v-360c0-33 27-60 60-60s60 27 60 60V564c0 33-27 60-60 60zM765.4 557.4c-23.3 23.3-61.5 23.3-84.9 0l-198-198-99 99c-23.3 23.3-61.5 23.3-84.9 0-23.3-23.3-23.3-61.5 0-84.9L440 232.1c23.3-23.3 61.5-23.3 84.9 0l240.4 240.4c23.5 23.4 23.5 61.6 0.1 84.9zM173.2 624c-33 0-60-27-60-60v-360c0-33 27-60 60-60s60 27 60 60V564c0 33-27 60-60 60zM173.2 732m-80 0a80 80 0 1 1 160 0 80 80 0 1 1-160 0ZM173.2 36m-80 0a80 80 0 1 1 160 0 80 80 0 1 1-160 0ZM869.2 732m-80 0a80 80 0 1 1 160 0 80 80 0 1 1-160 0ZM869.2 36m-80 0a80 80 0 1 1 160 0 80 80 0 1 1-160 0Z"  horiz-adv-x="1024" />

    
    <glyph glyph-name="db10_spanner" unicode="&#59198;" d="M931.8 100.5L571.1 460.8c-0.3 0.3-0.6 0.6-0.9 0.8 57 104.9 49.6 228.5-27.6 305.6-77.3 77.2-201.1 84.6-306.2 27.5-7.2-3.9-8.7-13.7-2.9-19.5L392 616.9l-113.1-113-158.5 158.2c-5.8 5.8-15.6 4.4-19.6-2.9-57.2-104.9-49.7-228.7 27.5-305.8 77.2-77.1 201-84.6 305.9-27.6 0.3-0.3 0.6-0.6 0.8-0.9l360.7-360.3c37.6-37.5 98.4-37.5 136 0 37.7 37.5 37.7 98.4 0.1 135.9z"  horiz-adv-x="1024" />

    
    <glyph glyph-name="db10_box" unicode="&#59199;" d="M926.1 591L541.6 824.8c-8.6 5.3-18.3 7.5-27.7 7.2-9.5 0.4-19.1-1.9-27.7-7.2L101.6 591c-15.7-9.5-24.2-26.4-24-43.6 0-1.7 0-3.4 0.2-5v-318.2c-1.6-18.4 7.1-37 23.8-47.1l384.5-233.8c8.1-4.9 17-7.2 25.9-7.2h1.8c9.5-0.4 19.1 1.9 27.7 7.2L926.1 177c15.6 9.5 24.2 26.3 24 43.5V543.4c0 0.8 0 1.6-0.1 2.3 0.9 17.7-7.8 35.4-23.9 45.3zM464 495.2l-77.8-47.4-163.9 99.6 241.6 146.9v-197c0-0.7 0-1.4 0.1-2.1z m-286.2-37.8L462 284.6v-209.7L177.8 247.7V457.4z m386.1 39.9V694.1l286.1-174V321L563.8 495c0.1 0.8 0.1 1.6 0.1 2.3z"  horiz-adv-x="1024" />

    
    <glyph glyph-name="db10_filter" unicode="&#59200;" d="M884.4 832H139.6c-65.8 0-95.3-82.6-44.3-124.2L442 424.9v-421c0-37.4 30.6-67.9 67.9-67.9h4.2c37.4 0 67.9 30.6 67.9 67.9v421l346.6 282.9C979.7 749.4 950.2 832 884.4 832z"  horiz-adv-x="1024" />

    
    <glyph glyph-name="db_chartArea" unicode="&#59201;" d="M910 36h-19.6L664.9 522c-13.3 28.6-52.8 31.3-69.9 4.9l-92.1-142.7-173.7 78c-22.1 9.9-47.9-1.9-54.8-25.2L164 62.2V782c0 27.5-22.5 50-50 50s-50-22.5-50-50v-796c0-27.5 22.5-50 50-50h796c27.5 0 50 22.5 50 50s-22.5 50-50 50z"  horiz-adv-x="1024" />

    
    <glyph glyph-name="db_chartBar" unicode="&#59202;" d="M119 832c-30.2 0-55-24.8-55-55v-786c0-30.2 24.8-55 55-55s55 24.8 55 55V777c0 30.2-24.8 55-55 55zM320 602h405.8c44 0 80 36 80 80s-36 80-80 80H320c-44 0-80-36-80-80s36-80 80-80zM880 464H320c-44 0-80-36-80-80s36-80 80-80h560c44 0 80 36 80 80s-36 80-80 80zM497.4 165H320c-44 0-80-36-80-80s36-80 80-80h177.4c44 0 80 36 80 80s-36 80-80 80z"  horiz-adv-x="1024" />

    
    <glyph glyph-name="db_blockProject" unicode="&#59203;" d="M464 772H144c-44 0-80-36-80-80v-230c0-44 36-80 80-80h320c44 0 80 36 80 80V692c0 44-36 80-80 80z m-20-290H164V672h280v-190zM877.4 772h-160c-44 0-80-36-80-80v-616c0-44 36-80 80-80h160c44 0 80 36 80 80V692c0 44-36 80-80 80z m-20-676h-120V672h120v-576zM464 316H144c-44 0-80-36-80-80v-160c0-44 36-80 80-80h320c44 0 80 36 80 80V236c0 44-36 80-80 80z m-20-220H164V216h280v-120z"  horiz-adv-x="1024" />

    
    <glyph glyph-name="db_chartFunnel" unicode="&#59204;" d="M900 832H124c-33 0-60-27-60-60s27-60 60-60h776c33 0 60 27 60 60s-27 60-60 60zM900 56H124c-33 0-60-27-60-60s27-60 60-60h776c33 0 60 27 60 60s-27 60-60 60zM270.2 111.9h483.5c35.7 0 53.5 43.2 28.2 68.3L577.4 384 782 587.8c25.3 25.2 7.5 68.3-28.2 68.3H270.2c-35.7 0-53.5-43.2-28.2-68.3L446.6 384 242 180.2c-25.3-25.1-7.4-68.3 28.2-68.3z"  horiz-adv-x="1024" />

    
    <glyph glyph-name="db_chartBubble" unicode="&#59205;" d="M316.1 544.4m-252.1 0a252.1 252.1 0 1 1 504.2 0 252.1 252.1 0 1 1-504.2 0ZM603.2 136.6m-75.5 0a75.5 75.5 0 1 1 151 0 75.5 75.5 0 1 1-151 0ZM414.5 197.8m-75.5 0a75.5 75.5 0 1 1 151 0 75.5 75.5 0 1 1-151 0ZM452.3 9.2m-37.7 0a37.7 37.7 0 1 1 75.4 0 37.7 37.7 0 1 1-75.4 0ZM678.6 659.8m-37.7 0a37.7 37.7 0 1 1 75.4 0 37.7 37.7 0 1 1-75.4 0ZM771.1 373.9m-188.9 0a188.9 188.9 0 1 1 377.8 0 188.9 188.9 0 1 1-377.8 0Z"  horiz-adv-x="1024" />

    
    <glyph glyph-name="db_chartColumn" unicode="&#59206;" d="M910 36h-14.1c0.1 1.5 0.1 3.1 0.1 4.6v573c0 44-36 80-80 80s-80-36-80-80v-572.9c0-1.6 0.1-3.1 0.1-4.6H635.2c0.1 1.5 0.1 3.1 0.1 4.6V237.4c0 44-36 80-80 80s-80-36-80-80v-196.8c0-1.6 0.1-3.1 0.1-4.6H380c0.1 1.5 0.1 3.1 0.1 4.6V330.9c0 44-36 80-80 80s-80-36-80-80v-290.3c0-1.6 0.1-3.1 0.1-4.6H164V782c0 27.5-22.5 50-50 50s-50-22.5-50-50v-796c0-27.5 22.5-50 50-50h796c27.5 0 50 22.5 50 50s-22.5 50-50 50z"  horiz-adv-x="1024" />

    
    <glyph glyph-name="db_chartCombine" unicode="&#59207;" d="M910 51.9h-58.9V736.1c0 44-36 80-80 80s-80-36-80-80v-19L479.6 451.8l-142.8-73.1v17c0 44-36 80-80 80s-80-36-80-80v-343.8H114c-27.5 0-50-22.5-50-50s22.5-50 50-50h796c27.5 0 50 22.5 50 50s-22.5 50-50 50zM336.8 266.4l198 101.3c0.1 0 0.1 0.1 0.2 0.1 0.6 0.3 1.2 0.6 1.8 1 0.2 0.1 0.3 0.2 0.5 0.3 0.6 0.3 1.1 0.7 1.7 1 0.2 0.1 0.5 0.3 0.7 0.4 0.5 0.3 1 0.6 1.4 1 0.3 0.2 0.7 0.5 1 0.7 0.3 0.3 0.7 0.5 1 0.8 2.2 1.8 4.2 3.7 6.1 5.7l0.1 0.1 1.8 2.1 0.1 0.1 140 175.7v-504.8H592v173c0 44-36 80-80 80s-80-36-80-80v-173h-95.2V266.4z"  horiz-adv-x="1024" />

    
    </font>
</defs>
</svg>
